<?xml version="1.0" encoding="UTF-8" standalone="no"?>
<!DOCTYPE svg PUBLIC "-//W3C//DTD SVG 1.1//EN" "http://www.w3.org/Graphics/SVG/1.1/DTD/svg11.dtd">
<svg width="100%" height="100%" viewBox="0 0 201 223" version="1.1" xmlns="http://www.w3.org/2000/svg" xmlns:xlink="http://www.w3.org/1999/xlink" xml:space="preserve" xmlns:serif="http://www.serif.com/" style="fill-rule:evenodd;clip-rule:evenodd;stroke-linejoin:round;stroke-miterlimit:2;">
    <g id="Artboard1" transform="matrix(0.887256,0,0,1,0,-0.00136665)">
        <rect x="0" y="0.001" width="225.993" height="222.602" style="fill:none;"/>
        <clipPath id="_clip1">
            <rect x="0" y="0.001" width="225.993" height="222.602"/>
        </clipPath>
        <g clip-path="url(#_clip1)">
            <g transform="matrix(0.490017,0,0,0.43477,-12.7372,0.00077247)">
                <g id="XMLID_2188_">
                    <g id="XMLID_351_">
                        <path id="XMLID_379_" d="M484.124,166.053C456.829,128.114 412.673,105.464 366.004,105.464C353.307,105.464 340.8,107.153 328.765,110.358L420.288,18.835C422.94,16.181 423.886,12.266 422.734,8.695C421.583,5.124 418.53,2.498 414.827,1.893C368.706,-5.631 321.461,9.574 288.46,42.575C274.084,56.953 263.087,74.033 255.872,92.547C248.658,74.033 237.661,56.953 223.285,42.575C190.284,9.575 143.042,-5.633 96.918,1.893C93.215,2.497 90.162,5.123 89.011,8.695C87.86,12.266 88.804,16.181 91.457,18.835L182.891,110.269C170.962,107.124 158.573,105.465 145.997,105.465C99.329,105.465 55.171,128.115 27.876,166.054C25.685,169.099 25.383,173.116 27.094,176.454C28.805,179.793 32.241,181.893 35.993,181.893L155.997,181.893C145.401,188.087 135.526,195.64 126.681,204.485C93.681,237.486 78.472,284.725 86,330.852C86.604,334.555 89.23,337.608 92.802,338.759C93.809,339.084 94.843,339.242 95.869,339.242C98.48,339.242 101.036,338.218 102.941,336.313L217.872,221.381L217.872,418.69C165.549,427.527 117.594,454.439 82.548,495.509C80.016,498.477 79.44,502.646 81.074,506.189C82.708,509.732 86.254,512.001 90.156,512.001L210.999,512.001C216.522,512.001 220.999,507.524 220.999,502.001C220.999,496.478 216.522,492 210.999,492L113.463,492C151.84,455.855 202.608,435.499 255.873,435.499C309.139,435.499 359.907,455.855 398.285,492L301.003,492C295.481,492 291.003,496.478 291.003,502.001C291.003,507.524 295.481,512.001 301.003,512.001L421.592,512.001C425.493,512.001 429.039,509.732 430.674,506.189C432.308,502.647 431.733,498.477 429.199,495.509C394.153,454.439 346.198,427.528 293.876,418.69L293.876,221.127L409.061,336.313C410.966,338.218 413.522,339.242 416.133,339.242C417.158,339.242 418.194,339.084 419.2,338.759C422.77,337.608 425.397,334.555 426.001,330.852C433.528,284.725 418.32,237.486 385.32,204.485C376.475,195.64 366.6,188.087 356.003,181.893L476.007,181.893C479.759,181.893 483.195,179.793 484.906,176.454C486.617,173.114 486.315,169.098 484.124,166.053ZM302.603,56.717C326.118,33.202 358.015,20.162 390.835,20.001L265.887,144.948C266.048,112.129 279.089,80.231 302.603,56.717ZM209.141,56.717C232.656,80.231 245.695,112.129 245.856,144.948L120.91,20.001C153.726,20.164 185.628,33.204 209.141,56.717ZM145.997,125.465C179.251,125.465 211.028,138.799 234.349,161.893L57.646,161.893C80.966,138.799 112.742,125.465 145.997,125.465ZM140.824,218.627C164.339,195.113 196.237,182.073 229.056,181.912L104.108,306.859C104.27,274.04 117.309,242.141 140.824,218.627ZM237.873,309.9L273.874,309.9L273.874,353.901L237.873,353.901L237.873,309.9ZM273.874,289.899L237.873,289.899L237.873,245.898L273.874,245.898L273.874,289.899ZM255.872,415.497C249.838,415.497 243.836,415.743 237.872,416.214L237.872,373.902L273.873,373.902L273.873,416.214C267.91,415.743 261.907,415.497 255.872,415.497ZM273.874,225.898L237.873,225.898L237.873,201.38L256.001,183.252L273.874,201.126L273.874,225.898ZM407.892,306.859L282.944,181.911C315.76,182.074 347.664,195.114 371.176,218.626C394.691,242.141 407.73,274.04 407.892,306.859ZM277.652,161.892C300.973,138.799 332.75,125.464 366.004,125.464C399.258,125.464 431.034,138.798 454.355,161.892L277.652,161.892Z" style="fill:rgb(167,154,110);fill-rule:nonzero;"/>
                        <path id="XMLID_1071_" d="M255.869,491.999C253.239,491.999 250.659,493.069 248.799,494.929C246.939,496.79 245.869,499.37 245.869,502C245.869,504.63 246.939,507.21 248.799,509.07C250.659,510.93 253.239,512 255.869,512C258.5,512 261.08,510.93 262.94,509.07C264.81,507.21 265.871,504.63 265.871,502C265.871,499.37 264.81,496.79 262.94,494.929C261.081,493.069 258.51,491.999 255.869,491.999Z" style="fill:rgb(167,154,110);fill-rule:nonzero;"/>
                    </g>
                </g>
            </g>
        </g>
    </g>
</svg>
