<?xml version="1.0" encoding="UTF-8" standalone="no"?><!DOCTYPE svg PUBLIC "-//W3C//DTD SVG 1.1//EN" "http://www.w3.org/Graphics/SVG/1.1/DTD/svg11.dtd"><svg width="100%" height="100%" viewBox="0 0 363 337" version="1.1" xmlns="http://www.w3.org/2000/svg" xmlns:xlink="http://www.w3.org/1999/xlink" xml:space="preserve" xmlns:serif="http://www.serif.com/" style="fill-rule:evenodd;clip-rule:evenodd;stroke-linejoin:round;stroke-miterlimit:2;"><rect id="Artboard1" x="0" y="0" width="362.403" height="336.914" style="fill:none;"/><g id="House"><path d="M202.811,179.592l-119.22,2.168l45.389,-44.438l133.629,-14.943l-59.798,57.213Z" style="fill:#0b63ad;"/><path d="M92.75,190.423l106.526,-2.184l1.257,76.109c-0,0 -102.918,-14.295 -107.783,-73.925Z" style="fill:#0b63ad;"/><path d="M321.111,186.8l16.638,-0.006l-65.435,-59.31l-51.356,43.091l46.424,-30.818l53.729,47.043Z" style="fill:#0b63ad;"/><path d="M301.899,158.492l0.312,-22.205l9.364,0.497l-0.872,28.585l-8.804,-6.877Z" style="fill:#0b63ad;"/><path d="M305.698,183.741l1.11,45.452l14.303,-11.59l-0.274,-33.862l-15.139,-0Z" style="fill:#0b63ad;"/><rect x="243.84" y="184.861" width="18.769" height="17.513" style="fill:#a1d058;"/><rect x="265.5" y="184.861" width="18.769" height="17.513" style="fill:#a1d058;"/><rect x="265.5" y="204.565" width="18.769" height="17.513" style="fill:#a1d058;"/><rect x="243.84" y="204.565" width="18.769" height="17.513" style="fill:#a1d058;"/></g><g id="green-circle"><path d="M308.179,71.011c-0,-0 -37.898,-63.622 -120.91,-66.422c-83.012,-2.799 -170.927,42.07 -182.607,156.904c-3.366,33.095 18.474,163.179 170.617,170.782c67.092,3.352 145.465,-42.061 171.408,-143.29c-16.486,22.777 -30.427,111.108 -158.497,112.951c-128.069,1.844 -151.387,-116.461 -152.073,-152.723c-0.685,-36.262 21.994,-122.887 149.188,-129.914c71.617,18.442 122.874,51.712 122.874,51.712Z" style="fill:#a1d058;"/><path d="M197.542,17.951c0,0 -77.179,-0.013 -113.951,63.333c21.152,12.784 57.742,58.847 129.702,6.531c23.117,-13.724 30.769,-23.465 94.886,-20.879c-16.415,-17.825 -58.334,-41.281 -110.637,-48.985Z" style="fill:#a1d058;"/></g><path id="blue-circle" d="M71.472,84.872c0,0 -66.932,182.716 119.762,207.758c23.786,1.696 72.904,0.489 112.559,-33.942c24.324,-21.12 45.087,-54.741 54.259,-107.86c-8.397,26.072 -31.116,125.597 -162.167,121.794c-32.49,-4.515 -162.199,-31.331 -124.413,-187.75Z" style="fill:#1ec1e9;"/></svg>