<svg viewBox="0 0 244 130" xmlns="http://www.w3.org/2000/svg" xml:space="preserve" fill-rule="evenodd" clip-rule="evenodd" stroke-linejoin="round" stroke-miterlimit="2">
    <g id="clean-cloud">
      <path d="M70.979 129.773H.741s-5.938-24.087 15.807-28.549c.547 7.529.353 9.386 3.011 11.389.762-2.501-1.194-19.997 13.831-28.062-3.461-9.531-10.76-54.949 41.987-53.314 4.483-8.735 10.591-24.839 39.361-15.315 1.89-5.635 7.285-15.186 16.686-15.352 9.401-.165 18.221 7.221 16.68 19.99 10.139-.378 19.148-2.536 29.631 11.792 6.062-3.51 30.374-17.013 42.606 14.638 1.572 4.068.173 16.407-6.274 23.422 3.983 5.208 13.275 19.405 1.249 35.751 2.011-.136 8.16-2.298 9.239-9.181 3.685 1.073 22.076 14.425 17.831 32.597-7.534.033-57.259 0-57.259 0l-114.148.194Z" fill="url(#_Linear2)"/>
      <path d="M58.571 13.714s7.584-1.363 8.799-8.127c.986 1.567 2.242 6.214 9.227 8.268-1.675 1.004-6.237.811-9.146 8.129-.643-1.058-1.284-6.288-8.88-8.27Z" fill="#56c8dc"/>
      <path d="M78.071 34.797s8.196-1.52 9.509-9.067c1.065 1.748 2.422 6.933 9.97 9.225-1.811 1.12-6.739.904-9.883 9.069-.695-1.18-1.388-7.016-9.596-9.227Zm-26.859 15.79s11.301-2.248 13.111-13.408c1.469 2.585 3.34 10.253 13.748 13.642-2.497 1.656-9.293 1.337-13.627 13.411-.959-1.746-1.914-10.375-13.232-13.645Z" fill="#fff"/>
      <ellipse cx="198.949" cy="43.383" rx="8.145" ry="8.434" fill="#fff"/>
      <ellipse cx="180.44" cy="17.403" rx="5.854" ry="6.062" fill="#62d2df"/>
      <ellipse cx="154.921" cy="12.184" rx="3.79" ry="3.924" fill="#62d2df"/>
      <ellipse cx="38.56" cy="102.722" rx="8.145" ry="8.434" fill="#fff"/>
      <ellipse cx="55.376" cy="109.76" rx="4.164" ry="4.312" fill="#fff"/>
      <ellipse cx="205.132" cy="109.76" rx="4.164" ry="4.312" fill="#fff"/>
    </g>
    <g id="entire-house" fill="#fff">
      <path id="House" d="m51.698 85.745 76.388-66.307 77.046 66.733h-19.857v43.602H70.882V86.079l-19.184-.334Z"/>
      <path id="Chimney" d="M169.268 43.884v27.319h14.661V43.437l-14.661.447Z"/>
    </g>
    <g id="Windows" fill="#37abcf">
      <path d="M110.126 109.76h16.615V92.699s-17.375-1.012-16.615 17.061Zm36.579 0h-16.427V92.699s17.178-1.012 16.427 17.061Zm-36.603 3.641h16.639v16.371h-16.639zm20.176 0h16.451v16.371h-16.451z"/>
    </g>
  <defs>
    <linearGradient id="_Linear2" x1="0" y1="0" x2="1" y2="0" gradientUnits="userSpaceOnUse" gradientTransform="rotate(154.294 99.027 38.913) scale(227.6644)">
      <stop offset="0" stop-color="#5fd1e0"/>
      <stop offset="1" stop-color="#1692c6"/>
    </linearGradient>
  </defs>
</svg>