<?xml version="1.0" encoding="UTF-8" standalone="no"?><!DOCTYPE svg PUBLIC "-//W3C//DTD SVG 1.1//EN" "http://www.w3.org/Graphics/SVG/1.1/DTD/svg11.dtd"><svg width="100%" height="100%" viewBox="0 0 8236 5851" version="1.1" xmlns="http://www.w3.org/2000/svg" xmlns:xlink="http://www.w3.org/1999/xlink" xml:space="preserve" xmlns:serif="http://www.serif.com/" style="fill-rule:evenodd;clip-rule:evenodd;stroke-linejoin:round;stroke-miterlimit:2;"><rect id="Artboard6" x="0" y="0" width="8235.6" height="5850.46"/><clipPath id="_clip1"><rect x="0" y="0" width="8235.6" height="5850.46"/></clipPath><g clip-path="url(#_clip1)"><g><path d="M2284.6,1382.82l6.424,-10.5l10.5,6.424l-6.424,10.5l-10.5,-6.424Z" style="fill:#fff;"/><path d="M2248.86,1122.85l3.212,-5.25l5.25,3.212l-3.212,5.25l-5.25,-3.212Z" style="fill:#fff;"/><path d="M2428.43,864.737l3.212,-5.25l5.25,3.212l-3.213,5.25l-5.249,-3.212Z" style="fill:#fff;"/><path d="M2572.7,1147.82l3.212,-5.25l5.25,3.212l-3.212,5.25l-5.25,-3.212Z" style="fill:#fff;"/><path d="M2625.44,1273.89l3.213,-5.25l5.249,3.212l-3.212,5.25l-5.25,-3.212Z" style="fill:#fff;"/><path d="M2793.5,1246.85l3.212,-5.25l5.25,3.213l-3.212,5.249l-5.25,-3.212Z" style="fill:#fff;"/><path d="M2653.03,1500.02l3.213,-5.25l5.249,3.212l-3.212,5.25l-5.25,-3.212Z" style="fill:#fff;"/><path d="M2011.51,862.178l3.212,-5.25l5.25,3.212l-3.212,5.25l-5.25,-3.212Z" style="fill:#fff;"/><path d="M1853.66,1414.97l6.425,-10.499l10.5,6.424l-6.425,10.5l-10.5,-6.425Z" style="fill:#fff;"/><path d="M2089.25,1147.85l3.212,-5.25l5.25,3.212l-3.213,5.25l-5.249,-3.212Z" style="fill:#fff;"/><path d="M1765.2,1512.37l3.212,-5.25l5.25,3.212l-3.212,5.25l-5.25,-3.212Z" style="fill:#fff;"/><path d="M1670.95,1548.5l3.212,-5.25l5.25,3.212l-3.213,5.25l-5.249,-3.212Z" style="fill:#fff;"/><path d="M1948.4,1566.74l3.212,-5.25l5.25,3.212l-3.212,5.25l-5.25,-3.212Z" style="fill:#fff;"/><path d="M2211.28,1561.63l3.212,-5.25l5.25,3.212l-3.212,5.25l-5.25,-3.212Z" style="fill:#fff;"/><path d="M1882.91,1815.28l9.636,-15.75l15.75,9.636l-9.636,15.75l-15.75,-9.636Z" style="fill:#fff;"/><path d="M2271.65,2146.93l6.424,-10.5l10.5,6.424l-6.424,10.5l-10.5,-6.424Z" style="fill:#fff;"/><path d="M2600.39,1727.56l3.212,-5.25l5.25,3.212l-3.212,5.25l-5.25,-3.212Z" style="fill:#fff;"/><path d="M2410.8,2167.14l3.212,-5.25l5.25,3.213l-3.212,5.25l-5.25,-3.213Z" style="fill:#fff;"/><path d="M2717.55,1972.41l3.212,-5.25l5.25,3.213l-3.212,5.25l-5.25,-3.213Z" style="fill:#fff;"/><path d="M3093.3,1488l6.425,-10.5l10.499,6.424l-6.424,10.5l-10.5,-6.424Z" style="fill:#fff;"/><path d="M3158.55,1145.51l3.212,-5.249l5.25,3.212l-3.212,5.25l-5.25,-3.213Z" style="fill:#fff;"/><path d="M2768.46,1700.52l3.213,-5.25l5.25,3.212l-3.213,5.25l-5.25,-3.212Z" style="fill:#fff;"/></g><g><path d="M6759.97,9.072l-1.943,5.84l-5.84,-1.943l1.943,-5.84l5.84,1.943Z" style="fill:#fff;"/><path d="M6643.36,301.081l-1.943,5.84l-5.84,-1.943l1.943,-5.84l5.84,1.943Z" style="fill:#fff;"/><path d="M6438.86,57.916l-1.942,5.84l-5.84,-1.943l1.942,-5.84l5.84,1.943Z" style="fill:#fff;"/><path d="M6201.39,11.345l-1.943,5.84l-5.84,-1.943l1.943,-5.84l5.84,1.943Z" style="fill:#fff;"/><path d="M7050.08,209.368l-1.943,5.84l-5.84,-1.943l1.943,-5.84l5.84,1.943Z" style="fill:#fff;"/><path d="M5868.69,192.542l-1.943,5.84l-5.84,-1.943l1.943,-5.84l5.84,1.943Z" style="fill:#fff;"/></g><g><path d="M7478.34,2876.09l-6.424,-10.5l-10.5,6.425l6.424,10.499l10.5,-6.424Z" style="fill:#fff;"/><path d="M7514.09,2616.11l-3.212,-5.25l-5.25,3.212l3.212,5.25l5.25,-3.212Z" style="fill:#fff;"/><path d="M7334.52,2358l-3.212,-5.25l-5.25,3.212l3.212,5.25l5.25,-3.212Z" style="fill:#fff;"/><path d="M7190.25,2641.09l-3.212,-5.25l-5.25,3.213l3.212,5.25l5.25,-3.213Z" style="fill:#fff;"/><path d="M7137.51,2767.16l-3.212,-5.249l-5.25,3.212l3.213,5.25l5.249,-3.213Z" style="fill:#fff;"/><path d="M6969.44,2740.11l-3.212,-5.25l-5.25,3.212l3.212,5.25l5.25,-3.212Z" style="fill:#fff;"/><path d="M7109.92,2993.28l-3.212,-5.25l-5.25,3.212l3.213,5.25l5.249,-3.212Z" style="fill:#fff;"/><path d="M7751.44,2355.45l-3.213,-5.25l-5.249,3.212l3.212,5.25l5.25,-3.212Z" style="fill:#fff;"/><path d="M7909.29,2908.24l-6.424,-10.5l-10.5,6.424l6.425,10.5l10.499,-6.424Z" style="fill:#fff;"/><path d="M7673.69,2641.12l-3.212,-5.25l-5.25,3.212l3.212,5.25l5.25,-3.212Z" style="fill:#fff;"/><path d="M7997.74,3005.64l-3.212,-5.25l-5.25,3.213l3.212,5.249l5.25,-3.212Z" style="fill:#fff;"/><path d="M8092,3041.77l-3.212,-5.25l-5.25,3.213l3.212,5.25l5.25,-3.213Z" style="fill:#fff;"/><path d="M7814.55,3060.01l-3.212,-5.25l-5.25,3.212l3.212,5.25l5.25,-3.212Z" style="fill:#fff;"/><path d="M7551.67,3054.9l-3.212,-5.25l-5.25,3.213l3.212,5.25l5.25,-3.213Z" style="fill:#fff;"/><path d="M7880.04,3308.55l-9.637,-15.75l-15.749,9.637l9.636,15.749l15.75,-9.636Z" style="fill:#fff;"/><path d="M7491.3,3640.2l-6.424,-10.5l-10.5,6.425l6.424,10.5l10.5,-6.425Z" style="fill:#fff;"/><path d="M7162.56,3220.83l-3.212,-5.25l-5.25,3.212l3.212,5.25l5.25,-3.212Z" style="fill:#fff;"/><path d="M7352.14,3660.4l-3.212,-5.25l-5.25,3.212l3.212,5.25l5.25,-3.212Z" style="fill:#fff;"/><path d="M7045.4,3465.68l-3.212,-5.25l-5.25,3.212l3.212,5.25l5.25,-3.212Z" style="fill:#fff;"/><path d="M6669.65,2981.27l-6.425,-10.5l-10.5,6.424l6.425,10.5l10.5,-6.424Z" style="fill:#fff;"/><path d="M6604.4,2638.78l-3.213,-5.25l-5.249,3.212l3.212,5.25l5.25,-3.212Z" style="fill:#fff;"/><path d="M6994.49,3193.78l-3.212,-5.25l-5.25,3.213l3.212,5.25l5.25,-3.213Z" style="fill:#fff;"/></g><g><path d="M7478.34,5411.05l-6.424,-10.5l-10.5,6.425l6.424,10.5l10.5,-6.425Z" style="fill:#fff;"/><path d="M7514.09,5151.07l-3.212,-5.25l-5.25,3.212l3.212,5.25l5.25,-3.212Z" style="fill:#fff;"/><path d="M7334.52,4892.97l-3.212,-5.25l-5.25,3.212l3.212,5.25l5.25,-3.212Z" style="fill:#fff;"/><path d="M7190.25,5176.05l-3.212,-5.249l-5.25,3.212l3.212,5.25l5.25,-3.213Z" style="fill:#fff;"/><path d="M7137.51,5302.12l-3.212,-5.25l-5.25,3.212l3.213,5.25l5.249,-3.212Z" style="fill:#fff;"/><path d="M6969.44,5275.07l-3.212,-5.25l-5.25,3.212l3.212,5.25l5.25,-3.212Z" style="fill:#fff;"/><path d="M7109.92,5528.24l-3.212,-5.25l-5.25,3.212l3.213,5.25l5.249,-3.212Z" style="fill:#fff;"/><path d="M7751.44,4890.41l-3.213,-5.25l-5.249,3.212l3.212,5.25l5.25,-3.212Z" style="fill:#fff;"/><path d="M7909.29,5443.2l-6.424,-10.5l-10.5,6.424l6.425,10.5l10.499,-6.424Z" style="fill:#fff;"/><path d="M7673.69,5176.08l-3.212,-5.25l-5.25,3.213l3.212,5.249l5.25,-3.212Z" style="fill:#fff;"/><path d="M7997.74,5540.6l-3.212,-5.25l-5.25,3.213l3.212,5.25l5.25,-3.213Z" style="fill:#fff;"/><path d="M8092,5576.73l-3.212,-5.25l-5.25,3.212l3.212,5.25l5.25,-3.212Z" style="fill:#fff;"/><path d="M7814.55,5594.97l-3.212,-5.25l-5.25,3.213l3.212,5.249l5.25,-3.212Z" style="fill:#fff;"/><path d="M7551.67,5589.86l-3.212,-5.249l-5.25,3.212l3.212,5.25l5.25,-3.213Z" style="fill:#fff;"/><path d="M7880.04,5843.51l-9.637,-15.75l-15.749,9.637l9.636,15.75l15.75,-9.637Z" style="fill:#fff;"/><path d="M7162.56,5755.79l-3.212,-5.25l-5.25,3.213l3.212,5.249l5.25,-3.212Z" style="fill:#fff;"/><path d="M6669.65,5516.23l-6.425,-10.5l-10.5,6.424l6.425,10.5l10.5,-6.424Z" style="fill:#fff;"/><path d="M6604.4,5173.74l-3.213,-5.25l-5.249,3.212l3.212,5.25l5.25,-3.212Z" style="fill:#fff;"/><path d="M6994.49,5728.74l-3.212,-5.249l-5.25,3.212l3.212,5.25l5.25,-3.213Z" style="fill:#fff;"/></g><g><path d="M7478.34,4047.75l-6.424,-10.5l-10.5,6.425l6.424,10.499l10.5,-6.424Z" style="fill:#fff;"/><path d="M7514.09,3787.78l-3.212,-5.25l-5.25,3.212l3.212,5.25l5.25,-3.212Z" style="fill:#fff;"/><path d="M7334.52,3529.67l-3.212,-5.25l-5.25,3.212l3.212,5.25l5.25,-3.212Z" style="fill:#fff;"/><path d="M7190.25,3812.75l-3.212,-5.25l-5.25,3.212l3.212,5.25l5.25,-3.212Z" style="fill:#fff;"/><path d="M7137.51,3938.82l-3.212,-5.25l-5.25,3.213l3.213,5.249l5.249,-3.212Z" style="fill:#fff;"/><path d="M6969.44,3911.78l-3.212,-5.249l-5.25,3.212l3.212,5.25l5.25,-3.213Z" style="fill:#fff;"/><path d="M7109.92,4164.95l-3.212,-5.25l-5.25,3.212l3.213,5.25l5.249,-3.212Z" style="fill:#fff;"/><path d="M7751.44,3527.11l-3.213,-5.25l-5.249,3.212l3.212,5.25l5.25,-3.212Z" style="fill:#fff;"/><path d="M7909.29,4079.91l-6.424,-10.5l-10.5,6.424l6.425,10.5l10.499,-6.424Z" style="fill:#fff;"/><path d="M7673.69,3812.78l-3.212,-5.25l-5.25,3.212l3.212,5.25l5.25,-3.212Z" style="fill:#fff;"/><path d="M7997.74,4177.31l-3.212,-5.25l-5.25,3.212l3.212,5.25l5.25,-3.212Z" style="fill:#fff;"/><path d="M8092,4213.43l-3.212,-5.25l-5.25,3.213l3.212,5.249l5.25,-3.212Z" style="fill:#fff;"/><path d="M7814.55,4231.67l-3.212,-5.25l-5.25,3.212l3.212,5.25l5.25,-3.212Z" style="fill:#fff;"/><path d="M7551.67,4226.56l-3.212,-5.25l-5.25,3.213l3.212,5.249l5.25,-3.212Z" style="fill:#fff;"/><path d="M7880.04,4480.22l-9.637,-15.75l-15.749,9.637l9.636,15.749l15.75,-9.636Z" style="fill:#fff;"/><path d="M7491.3,4811.86l-6.424,-10.5l-10.5,6.425l6.424,10.499l10.5,-6.424Z" style="fill:#fff;"/><path d="M7162.56,4392.49l-3.212,-5.25l-5.25,3.212l3.212,5.25l5.25,-3.212Z" style="fill:#fff;"/><path d="M7352.14,4832.07l-3.212,-5.25l-5.25,3.212l3.212,5.25l5.25,-3.212Z" style="fill:#fff;"/><path d="M7045.4,4637.34l-3.212,-5.25l-5.25,3.212l3.212,5.25l5.25,-3.212Z" style="fill:#fff;"/><path d="M6669.65,4152.93l-6.425,-10.5l-10.5,6.424l6.425,10.5l10.5,-6.424Z" style="fill:#fff;"/><path d="M6604.4,3810.44l-3.213,-5.25l-5.249,3.212l3.212,5.25l5.25,-3.212Z" style="fill:#fff;"/><path d="M6994.49,4365.45l-3.212,-5.25l-5.25,3.212l3.212,5.25l5.25,-3.212Z" style="fill:#fff;"/></g><g><path d="M1224.24,46.837l-5.25,3.213l3.213,5.249l5.25,-3.212l-3.213,-5.25Z" style="fill:#fff;"/></g><g><rect x="3525.23" y="1319.88" width="12.309" height="12.309" style="fill:#fff;"/><rect x="3328.28" y="1153.7" width="6.155" height="6.155" style="fill:#fff;"/><rect x="3014.39" y="1172.16" width="6.155" height="6.155" style="fill:#fff;"/><rect x="3180.57" y="1442.97" width="6.155" height="6.155" style="fill:#fff;"/><rect x="3260.58" y="1553.75" width="6.155" height="6.155" style="fill:#fff;"/><rect x="3149.8" y="1683" width="6.155" height="6.155" style="fill:#fff;"/><rect x="3439.07" y="1695.31" width="6.155" height="6.155" style="fill:#fff;"/><rect x="3229.81" y="815.195" width="6.155" height="6.155" style="fill:#fff;"/><rect x="3777.57" y="969.061" width="12.309" height="12.309" style="fill:#fff;"/><rect x="3432.91" y="1030.61" width="6.155" height="6.155" style="fill:#fff;"/><rect x="3912.97" y="944.443" width="6.155" height="6.155" style="fill:#fff;"/><rect x="3992.98" y="882.896" width="6.155" height="6.155" style="fill:#fff;"/><rect x="3863.74" y="1129.08" width="6.155" height="6.155" style="fill:#fff;"/><rect x="3722.18" y="1350.65" width="6.155" height="6.155" style="fill:#fff;"/><rect x="4097.61" y="1202.94" width="18.464" height="18.464" style="fill:#fff;"/><rect x="4183.78" y="1707.62" width="12.309" height="12.309" style="fill:#fff;"/><rect x="3660.63" y="1769.17" width="6.155" height="6.155" style="fill:#fff;"/><rect x="4134.54" y="1836.87" width="6.155" height="6.155" style="fill:#fff;"/><rect x="3808.34" y="1996.89" width="6.155" height="6.155" style="fill:#fff;"/><rect x="3192.88" y="2064.59" width="12.309" height="12.309" style="fill:#fff;"/><rect x="2872.84" y="1941.5" width="6.155" height="6.155" style="fill:#fff;"/><rect x="3549.85" y="1898.41" width="6.155" height="6.155" style="fill:#fff;"/></g><g><path d="M5460.1,108.321l11.991,-2.781l-2.781,-11.991l-11.991,2.781l2.781,11.991Z" style="fill:#fff;"/><path d="M5695.49,224.307l5.995,-1.391l-1.39,-5.996l-5.996,1.391l1.391,5.996Z" style="fill:#fff;"/><path d="M5997.09,135.396l5.996,-1.391l-1.391,-5.995l-5.995,1.39l1.39,5.996Z" style="fill:#fff;"/><path d="M5867.91,531.807l5.995,-1.391l-1.391,-5.995l-5.995,1.391l1.391,5.995Z" style="fill:#fff;"/><path d="M5293.55,507.081l11.991,-2.782l-2.781,-11.991l-11.991,2.782l2.781,11.991Z" style="fill:#fff;"/><path d="M5621.39,367.858l5.996,-1.391l-1.391,-5.996l-5.995,1.391l1.39,5.996Z" style="fill:#fff;"/><path d="M5173.21,560.267l5.995,-1.391l-1.391,-5.995l-5.995,1.39l1.391,5.996Z" style="fill:#fff;"/><path d="M5109.17,638.3l5.996,-1.39l-1.391,-5.996l-5.995,1.391l1.39,5.995Z" style="fill:#fff;"/><path d="M5179.45,369.277l5.996,-1.391l-1.391,-5.995l-5.995,1.391l1.39,5.995Z" style="fill:#fff;"/><path d="M5267.28,121.454l5.995,-1.39l-1.39,-5.996l-5.996,1.391l1.391,5.995Z" style="fill:#fff;"/><path d="M4922.94,352.958l17.987,-4.172l-4.172,-17.986l-17.987,4.172l4.172,17.986Z" style="fill:#fff;"/></g><g><rect x="6225.41" y="2813.14" width="12.309" height="12.309" style="fill:#fff;"/><rect x="6428.51" y="2646.97" width="6.155" height="6.155" style="fill:#fff;"/><rect x="6742.4" y="2665.43" width="6.155" height="6.155" style="fill:#fff;"/><rect x="6576.22" y="2936.24" width="6.155" height="6.155" style="fill:#fff;"/><rect x="6496.21" y="3047.02" width="6.155" height="6.155" style="fill:#fff;"/><rect x="6607" y="3176.27" width="6.155" height="6.155" style="fill:#fff;"/><rect x="6317.73" y="3188.58" width="6.155" height="6.155" style="fill:#fff;"/><rect x="6526.99" y="2308.46" width="6.155" height="6.155" style="fill:#fff;"/><rect x="5973.07" y="2462.33" width="12.309" height="12.309" style="fill:#fff;"/><rect x="6323.88" y="2523.88" width="6.155" height="6.155" style="fill:#fff;"/><rect x="5843.82" y="2437.71" width="6.155" height="6.155" style="fill:#fff;"/><rect x="5763.81" y="2376.16" width="6.155" height="6.155" style="fill:#fff;"/><rect x="5893.06" y="2622.35" width="6.155" height="6.155" style="fill:#fff;"/><rect x="6034.61" y="2843.92" width="6.155" height="6.155" style="fill:#fff;"/><rect x="5646.87" y="2696.2" width="18.464" height="18.464" style="fill:#fff;"/><rect x="5566.86" y="3200.89" width="12.309" height="12.309" style="fill:#fff;"/><rect x="6096.16" y="3262.43" width="6.155" height="6.155" style="fill:#fff;"/><rect x="5622.25" y="3330.13" width="6.155" height="6.155" style="fill:#fff;"/><rect x="5948.45" y="3490.16" width="6.155" height="6.155" style="fill:#fff;"/><rect x="6557.76" y="3557.86" width="12.309" height="12.309" style="fill:#fff;"/><rect x="6883.96" y="3434.76" width="6.155" height="6.155" style="fill:#fff;"/><rect x="6206.94" y="3391.68" width="6.155" height="6.155" style="fill:#fff;"/></g><g><rect x="6225.41" y="5348.11" width="12.309" height="12.309" style="fill:#fff;"/><rect x="6428.51" y="5181.93" width="6.155" height="6.155" style="fill:#fff;"/><rect x="6742.4" y="5200.39" width="6.155" height="6.155" style="fill:#fff;"/><rect x="6576.22" y="5471.2" width="6.155" height="6.155" style="fill:#fff;"/><rect x="6496.21" y="5581.98" width="6.155" height="6.155" style="fill:#fff;"/><rect x="6607" y="5711.23" width="6.155" height="6.155" style="fill:#fff;"/><rect x="6317.73" y="5723.54" width="6.155" height="6.155" style="fill:#fff;"/><rect x="6526.99" y="4843.42" width="6.155" height="6.155" style="fill:#fff;"/><rect x="5973.07" y="4997.29" width="12.309" height="12.309" style="fill:#fff;"/><rect x="6323.88" y="5058.84" width="6.155" height="6.155" style="fill:#fff;"/><rect x="5843.82" y="4972.67" width="6.155" height="6.155" style="fill:#fff;"/><rect x="5763.81" y="4911.12" width="6.155" height="6.155" style="fill:#fff;"/><rect x="5893.06" y="5157.31" width="6.155" height="6.155" style="fill:#fff;"/><rect x="6034.61" y="5378.88" width="6.155" height="6.155" style="fill:#fff;"/><rect x="5646.87" y="5231.17" width="18.464" height="18.464" style="fill:#fff;"/><rect x="5566.86" y="5735.85" width="12.309" height="12.309" style="fill:#fff;"/><rect x="6096.16" y="5797.4" width="6.155" height="6.155" style="fill:#fff;"/></g><g><rect x="6225.41" y="3984.81" width="12.309" height="12.309" style="fill:#fff;"/><rect x="6428.51" y="3818.63" width="6.155" height="6.155" style="fill:#fff;"/><rect x="6742.4" y="3837.1" width="6.155" height="6.155" style="fill:#fff;"/><rect x="6576.22" y="4107.9" width="6.155" height="6.155" style="fill:#fff;"/><rect x="6496.21" y="4218.69" width="6.155" height="6.155" style="fill:#fff;"/><rect x="6607" y="4347.93" width="6.155" height="6.155" style="fill:#fff;"/><rect x="6317.73" y="4360.24" width="6.155" height="6.155" style="fill:#fff;"/><rect x="6526.99" y="3480.13" width="6.155" height="6.155" style="fill:#fff;"/><rect x="5973.07" y="3633.99" width="12.309" height="12.309" style="fill:#fff;"/><rect x="6323.88" y="3695.54" width="6.155" height="6.155" style="fill:#fff;"/><rect x="5843.82" y="3609.38" width="6.155" height="6.155" style="fill:#fff;"/><rect x="5763.81" y="3547.83" width="6.155" height="6.155" style="fill:#fff;"/><rect x="5893.06" y="3794.01" width="6.155" height="6.155" style="fill:#fff;"/><rect x="6034.61" y="4015.58" width="6.155" height="6.155" style="fill:#fff;"/><rect x="5646.87" y="3867.87" width="18.464" height="18.464" style="fill:#fff;"/><rect x="5566.86" y="4372.55" width="12.309" height="12.309" style="fill:#fff;"/><rect x="6096.16" y="4434.1" width="6.155" height="6.155" style="fill:#fff;"/><rect x="5622.25" y="4501.8" width="6.155" height="6.155" style="fill:#fff;"/><rect x="5948.45" y="4661.82" width="6.155" height="6.155" style="fill:#fff;"/><rect x="6557.76" y="4729.52" width="12.309" height="12.309" style="fill:#fff;"/><rect x="6883.96" y="4606.43" width="6.155" height="6.155" style="fill:#fff;"/><rect x="6206.94" y="4563.35" width="6.155" height="6.155" style="fill:#fff;"/></g><g><path d="M477.366,3934.16l-0,12.31l-12.31,-0l0,-12.31l12.31,0Z" style="fill:#fff;"/><path d="M643.541,4137.27l0,6.154l-6.155,0l0,-6.154l6.155,-0Z" style="fill:#fff;"/><path d="M625.077,4451.15l0,6.155l-6.154,-0l-0,-6.155l6.154,-0Z" style="fill:#fff;"/><path d="M354.273,4284.98l-0,6.155l-6.155,0l-0,-6.155l6.155,0Z" style="fill:#fff;"/><path d="M243.489,4204.97l-0,6.155l-6.155,-0l0,-6.155l6.155,-0Z" style="fill:#fff;"/><path d="M114.241,4315.75l0,6.154l-6.154,0l-0,-6.154l6.154,-0Z" style="fill:#fff;"/><path d="M101.932,4026.48l0,6.155l-6.155,-0l0,-6.155l6.155,0Z" style="fill:#fff;"/><path d="M982.047,4235.74l-0,6.155l-6.155,-0l0,-6.155l6.155,0Z" style="fill:#fff;"/><path d="M828.181,3681.82l-0,12.309l-12.31,0l0,-12.309l12.31,-0Z" style="fill:#fff;"/><path d="M766.634,4032.64l0,6.154l-6.155,0l0,-6.154l6.155,-0Z" style="fill:#fff;"/><path d="M852.799,3552.57l0,6.155l-6.154,-0l-0,-6.155l6.154,0Z" style="fill:#fff;"/><path d="M914.346,3472.56l-0,6.154l-6.155,0l0,-6.154l6.155,-0Z" style="fill:#fff;"/><path d="M668.16,3601.81l-0,6.155l-6.155,0l0,-6.155l6.155,0Z" style="fill:#fff;"/><path d="M446.592,3743.37l0,6.155l-6.154,-0l-0,-6.155l6.154,0Z" style="fill:#fff;"/><path d="M594.304,3355.62l-0,18.464l-18.464,0l-0,-18.464l18.464,0Z" style="fill:#fff;"/><path d="M89.623,3275.62l-0,12.309l-12.31,0l0,-12.309l12.31,0Z" style="fill:#fff;"/><path d="M28.076,3804.91l0,6.154l-6.154,0l-0,-6.154l6.154,-0Z" style="fill:#fff;"/></g><g><path d="M1398.61,425.829l0,-12.31l12.309,0l0,12.31l-12.309,-0Z" style="fill:#fff;"/><path d="M1232.43,222.725l-0,-6.154l6.154,-0l0,6.154l-6.154,0Z" style="fill:#fff;"/><path d="M1521.7,75.014l0,-6.155l6.155,0l-0,6.155l-6.155,-0Z" style="fill:#fff;"/><path d="M1632.49,155.024l-0,-6.154l6.154,-0l0,6.154l-6.154,0Z" style="fill:#fff;"/><path d="M1761.73,44.241l0,-6.155l6.155,-0l-0,6.155l-6.155,-0Z" style="fill:#fff;"/><path d="M1774.04,333.509l-0,-6.155l6.154,0l0,6.155l-6.154,-0Z" style="fill:#fff;"/><path d="M893.928,124.251l-0,-6.155l6.155,0l-0,6.155l-6.155,-0Z" style="fill:#fff;"/><path d="M1047.79,678.169l0,-12.309l12.309,0l0,12.309l-12.309,0Z" style="fill:#fff;"/><path d="M1109.34,327.354l-0,-6.154l6.154,-0l0,6.154l-6.154,0Z" style="fill:#fff;"/><path d="M1023.18,807.417l-0,-6.155l6.154,0l0,6.155l-6.154,-0Z" style="fill:#fff;"/><path d="M961.629,887.427l0,-6.154l6.155,-0l-0,6.154l-6.155,0Z" style="fill:#fff;"/><path d="M1207.82,758.18l-0,-6.155l6.155,0l-0,6.155l-6.155,-0Z" style="fill:#fff;"/><path d="M1429.38,616.623l0,-6.155l6.155,0l-0,6.155l-6.155,-0Z" style="fill:#fff;"/><path d="M1281.67,1004.37l-0,-18.464l18.464,-0l-0,18.464l-18.464,-0Z" style="fill:#fff;"/><path d="M1786.35,1084.38l-0,-12.309l12.309,-0l0,12.309l-12.309,0Z" style="fill:#fff;"/><path d="M1847.9,555.076l0,-6.154l6.155,-0l0,6.154l-6.155,0Z" style="fill:#fff;"/><path d="M1915.6,1028.98l-0,-6.154l6.154,-0l0,6.154l-6.154,0Z" style="fill:#fff;"/><path d="M2075.62,702.788l0,-6.155l6.155,0l0,6.155l-6.155,-0Z" style="fill:#fff;"/><path d="M2143.32,93.478l-0,-12.31l12.309,0l-0,12.31l-12.309,-0Z" style="fill:#fff;"/><path d="M1977.15,444.293l0,-6.155l6.155,0l-0,6.155l-6.155,-0Z" style="fill:#fff;"/></g><g><path d="M4502.76,1321.46l12.1,2.263l-2.264,12.1l-12.099,-2.264l2.263,-12.099Z" style="fill:#fff;"/><path d="M4732.96,1195.47l6.05,1.132l-1.132,6.05l-6.05,-1.132l1.132,-6.05Z" style="fill:#fff;"/><path d="M5038.1,1271.34l6.05,1.132l-1.132,6.049l-6.05,-1.131l1.132,-6.05Z" style="fill:#fff;"/><path d="M4824.96,1506.97l6.05,1.132l-1.132,6.05l-6.05,-1.132l1.132,-6.05Z" style="fill:#fff;"/><path d="M4725.94,1601.15l6.05,1.131l-1.132,6.05l-6.05,-1.132l1.132,-6.049Z" style="fill:#fff;"/><path d="M4811.07,1748.56l6.049,1.132l-1.131,6.049l-6.05,-1.131l1.132,-6.05Z" style="fill:#fff;"/><path d="M4524.47,1707.47l6.05,1.131l-1.132,6.05l-6.049,-1.132l1.131,-6.049Z" style="fill:#fff;"/><path d="M4892,880.843l6.05,1.132l-1.132,6.05l-6.05,-1.132l1.132,-6.05Z" style="fill:#fff;"/><path d="M4319.24,930.227l12.1,2.264l-2.264,12.099l-12.099,-2.264l2.263,-12.099Z" style="fill:#fff;"/><path d="M4652.75,1055.23l6.05,1.132l-1.132,6.05l-6.049,-1.132l1.131,-6.05Z" style="fill:#fff;"/><path d="M4196.72,882.261l6.049,1.132l-1.131,6.05l-6.05,-1.132l1.132,-6.05Z" style="fill:#fff;"/><path d="M4129.39,807.051l6.05,1.132l-1.132,6.05l-6.05,-1.132l1.132,-6.05Z" style="fill:#fff;"/><path d="M4211.16,1072.81l6.05,1.132l-1.132,6.05l-6.049,-1.132l1.131,-6.05Z" style="fill:#fff;"/><path d="M4309.56,1316.63l6.05,1.131l-1.132,6.05l-6.05,-1.132l1.132,-6.049Z" style="fill:#fff;"/><path d="M3955.6,1100.13l18.15,3.395l-3.396,18.149l-18.149,-3.395l3.395,-18.149Z" style="fill:#fff;"/><path d="M3784.14,1581.49l12.099,2.264l-2.263,12.099l-12.099,-2.263l2.263,-12.1Z" style="fill:#fff;"/><path d="M4293.1,1739.32l6.05,1.131l-1.132,6.05l-6.05,-1.132l1.132,-6.049Z" style="fill:#fff;"/><path d="M3814.83,1718.72l6.05,1.131l-1.132,6.05l-6.049,-1.132l1.131,-6.049Z" style="fill:#fff;"/><path d="M4106.03,1936l6.05,1.132l-1.132,6.05l-6.049,-1.132l1.131,-6.05Z" style="fill:#fff;"/><path d="M4692.5,2114.59l12.099,2.264l-2.263,12.099l-12.1,-2.264l2.264,-12.099Z" style="fill:#fff;"/><path d="M5035.77,2053.58l6.05,1.132l-1.132,6.05l-6.05,-1.132l1.132,-6.05Z" style="fill:#fff;"/><path d="M4378.23,1886.74l6.049,1.132l-1.131,6.049l-6.05,-1.131l1.132,-6.05Z" style="fill:#fff;"/></g><g><path d="M4519.48,324.873l-12.298,0.529l-0.529,-12.298l12.298,-0.529l0.529,12.298Z" style="fill:#fff;"/><path d="M4323.7,499.623l-6.149,0.264l-0.265,-6.149l6.149,-0.264l0.265,6.149Z" style="fill:#fff;"/><path d="M4009.31,494.664l-6.149,0.264l-0.264,-6.149l6.149,-0.264l0.264,6.149Z" style="fill:#fff;"/><path d="M4163.7,216.969l-6.149,0.264l-0.265,-6.149l6.149,-0.264l0.265,6.149Z" style="fill:#fff;"/><path d="M4238.87,102.849l-6.149,0.265l-0.265,-6.149l6.149,-0.265l0.265,6.149Z" style="fill:#fff;"/><path d="M4239.86,842.047l-6.149,0.265l-0.264,-6.149l6.149,-0.265l0.264,6.149Z" style="fill:#fff;"/><path d="M4786.66,664.521l-12.298,0.529l-0.529,-12.298l12.298,-0.529l0.529,12.298Z" style="fill:#fff;"/><path d="M4433.52,618.106l-6.149,0.265l-0.264,-6.149l6.149,-0.265l0.264,6.149Z" style="fill:#fff;"/><path d="M4916.85,683.563l-6.149,0.265l-0.264,-6.149l6.149,-0.265l0.264,6.149Z" style="fill:#fff;"/><path d="M4999.43,741.615l-6.149,0.264l-0.264,-6.149l6.149,-0.264l0.264,6.149Z" style="fill:#fff;"/><path d="M4859.72,501.21l-6.149,0.264l-0.264,-6.148l6.149,-0.265l0.264,6.149Z" style="fill:#fff;"/><path d="M4708.77,285.93l-6.149,0.265l-0.264,-6.149l6.149,-0.265l0.264,6.149Z" style="fill:#fff;"/><path d="M5102.5,416.844l-18.447,0.793l-0.793,-18.447l18.447,-0.793l0.793,18.447Z" style="fill:#fff;"/></g><g><path d="M5260.18,2814.73l-12.099,2.264l2.264,12.099l12.099,-2.264l-2.264,-12.099Z" style="fill:#fff;"/><path d="M5029.99,2688.74l-6.05,1.132l1.132,6.05l6.05,-1.132l-1.132,-6.05Z" style="fill:#fff;"/><path d="M4724.85,2764.6l-6.05,1.132l1.132,6.05l6.05,-1.132l-1.132,-6.05Z" style="fill:#fff;"/><path d="M4937.99,3000.23l-6.05,1.132l1.132,6.05l6.05,-1.132l-1.132,-6.05Z" style="fill:#fff;"/><path d="M5037.01,3094.41l-6.05,1.132l1.132,6.049l6.05,-1.131l-1.132,-6.05Z" style="fill:#fff;"/><path d="M4951.88,3241.83l-6.049,1.132l1.131,6.05l6.05,-1.132l-1.132,-6.05Z" style="fill:#fff;"/><path d="M5238.48,3200.74l-6.049,1.132l1.132,6.049l6.049,-1.131l-1.132,-6.05Z" style="fill:#fff;"/><path d="M4870.94,2374.11l-6.05,1.132l1.132,6.05l6.05,-1.132l-1.132,-6.05Z" style="fill:#fff;"/><path d="M5443.71,2423.49l-12.1,2.264l2.264,12.099l12.099,-2.263l-2.263,-12.1Z" style="fill:#fff;"/><path d="M5110.2,2548.5l-6.05,1.131l1.132,6.05l6.049,-1.132l-1.131,-6.049Z" style="fill:#fff;"/><path d="M5566.23,2375.53l-6.049,1.131l1.131,6.05l6.05,-1.132l-1.132,-6.049Z" style="fill:#fff;"/><path d="M5633.56,2300.32l-6.05,1.131l1.132,6.05l6.049,-1.132l-1.131,-6.049Z" style="fill:#fff;"/><path d="M5551.78,2566.07l-6.049,1.132l1.132,6.05l6.049,-1.132l-1.132,-6.05Z" style="fill:#fff;"/><path d="M5453.38,2809.89l-6.05,1.132l1.132,6.049l6.05,-1.131l-1.132,-6.05Z" style="fill:#fff;"/><path d="M5807.35,2593.4l-18.149,3.396l3.396,18.149l18.149,-3.396l-3.396,-18.149Z" style="fill:#fff;"/><path d="M5978.8,3074.76l-12.1,2.263l2.264,12.099l12.099,-2.263l-2.263,-12.099Z" style="fill:#fff;"/><path d="M5469.85,3232.59l-6.05,1.132l1.132,6.049l6.049,-1.131l-1.131,-6.05Z" style="fill:#fff;"/><path d="M5948.12,3211.99l-6.05,1.132l1.132,6.049l6.049,-1.131l-1.131,-6.05Z" style="fill:#fff;"/><path d="M5656.91,3429.27l-6.049,1.132l1.132,6.05l6.049,-1.132l-1.132,-6.05Z" style="fill:#fff;"/><path d="M5070.44,3607.86l-12.099,2.264l2.263,12.099l12.099,-2.263l-2.263,-12.1Z" style="fill:#fff;"/><path d="M4727.18,3546.85l-6.05,1.132l1.132,6.049l6.05,-1.132l-1.132,-6.049Z" style="fill:#fff;"/><path d="M5384.72,3380.01l-6.05,1.132l1.132,6.05l6.05,-1.132l-1.132,-6.05Z" style="fill:#fff;"/></g><g><path d="M5260.18,5349.69l-12.099,2.264l2.264,12.099l12.099,-2.263l-2.264,-12.1Z" style="fill:#fff;"/><path d="M5029.99,5223.7l-6.05,1.131l1.132,6.05l6.05,-1.132l-1.132,-6.049Z" style="fill:#fff;"/><path d="M4724.85,5299.57l-6.05,1.132l1.132,6.05l6.05,-1.132l-1.132,-6.05Z" style="fill:#fff;"/><path d="M4937.99,5535.19l-6.05,1.132l1.132,6.05l6.05,-1.132l-1.132,-6.05Z" style="fill:#fff;"/><path d="M5037.01,5629.38l-6.05,1.132l1.132,6.05l6.05,-1.132l-1.132,-6.05Z" style="fill:#fff;"/><path d="M4951.88,5776.79l-6.049,1.132l1.131,6.05l6.05,-1.132l-1.132,-6.05Z" style="fill:#fff;"/><path d="M5238.48,5735.7l-6.049,1.132l1.132,6.049l6.049,-1.131l-1.132,-6.05Z" style="fill:#fff;"/><path d="M4870.94,4909.07l-6.05,1.132l1.132,6.05l6.05,-1.132l-1.132,-6.05Z" style="fill:#fff;"/><path d="M5443.71,4958.46l-12.1,2.264l2.264,12.099l12.099,-2.263l-2.263,-12.1Z" style="fill:#fff;"/><path d="M5110.2,5083.46l-6.05,1.131l1.132,6.05l6.049,-1.132l-1.131,-6.049Z" style="fill:#fff;"/><path d="M5566.23,4910.49l-6.049,1.131l1.131,6.05l6.05,-1.132l-1.132,-6.049Z" style="fill:#fff;"/><path d="M5633.56,4835.28l-6.05,1.132l1.132,6.049l6.049,-1.132l-1.131,-6.049Z" style="fill:#fff;"/><path d="M5551.78,5101.04l-6.049,1.131l1.132,6.05l6.049,-1.132l-1.132,-6.049Z" style="fill:#fff;"/><path d="M5453.38,5344.86l-6.05,1.132l1.132,6.05l6.05,-1.132l-1.132,-6.05Z" style="fill:#fff;"/><path d="M5807.35,5128.36l-18.149,3.396l3.396,18.149l18.149,-3.395l-3.396,-18.15Z" style="fill:#fff;"/><path d="M5978.8,5609.72l-12.1,2.263l2.264,12.1l12.099,-2.264l-2.263,-12.099Z" style="fill:#fff;"/><path d="M5469.85,5767.55l-6.05,1.132l1.132,6.049l6.049,-1.131l-1.131,-6.05Z" style="fill:#fff;"/><path d="M5948.12,5746.95l-6.05,1.132l1.132,6.05l6.049,-1.132l-1.131,-6.05Z" style="fill:#fff;"/></g><g><path d="M5260.18,3986.39l-12.099,2.264l2.264,12.099l12.099,-2.264l-2.264,-12.099Z" style="fill:#fff;"/><path d="M5029.99,3860.4l-6.05,1.132l1.132,6.05l6.05,-1.132l-1.132,-6.05Z" style="fill:#fff;"/><path d="M4724.85,3936.27l-6.05,1.132l1.132,6.05l6.05,-1.132l-1.132,-6.05Z" style="fill:#fff;"/><path d="M4937.99,4171.9l-6.05,1.132l1.132,6.05l6.05,-1.132l-1.132,-6.05Z" style="fill:#fff;"/><path d="M5037.01,4266.08l-6.05,1.132l1.132,6.049l6.05,-1.131l-1.132,-6.05Z" style="fill:#fff;"/><path d="M4951.88,4413.49l-6.049,1.132l1.131,6.05l6.05,-1.132l-1.132,-6.05Z" style="fill:#fff;"/><path d="M5238.48,4372.4l-6.049,1.132l1.132,6.049l6.049,-1.131l-1.132,-6.05Z" style="fill:#fff;"/><path d="M4870.94,3545.78l-6.05,1.132l1.132,6.05l6.05,-1.132l-1.132,-6.05Z" style="fill:#fff;"/><path d="M5443.71,3595.16l-12.1,2.264l2.264,12.099l12.099,-2.263l-2.263,-12.1Z" style="fill:#fff;"/><path d="M5110.2,3720.17l-6.05,1.132l1.132,6.05l6.049,-1.132l-1.131,-6.05Z" style="fill:#fff;"/><path d="M5566.23,3547.19l-6.049,1.132l1.131,6.05l6.05,-1.132l-1.132,-6.05Z" style="fill:#fff;"/><path d="M5633.56,3471.98l-6.05,1.131l1.132,6.05l6.049,-1.132l-1.131,-6.049Z" style="fill:#fff;"/><path d="M5551.78,3737.74l-6.049,1.132l1.132,6.05l6.049,-1.132l-1.132,-6.05Z" style="fill:#fff;"/><path d="M5453.38,3981.56l-6.05,1.132l1.132,6.049l6.05,-1.131l-1.132,-6.05Z" style="fill:#fff;"/><path d="M5807.35,3765.06l-18.149,3.396l3.396,18.149l18.149,-3.396l-3.396,-18.149Z" style="fill:#fff;"/><path d="M5978.8,4246.43l-12.1,2.264l2.264,12.099l12.099,-2.263l-2.263,-12.1Z" style="fill:#fff;"/><path d="M5469.85,4404.26l-6.05,1.132l1.132,6.049l6.049,-1.132l-1.131,-6.049Z" style="fill:#fff;"/><path d="M5948.12,4383.66l-6.05,1.132l1.132,6.049l6.049,-1.131l-1.131,-6.05Z" style="fill:#fff;"/><path d="M5656.91,4600.93l-6.049,1.132l1.132,6.05l6.049,-1.132l-1.132,-6.05Z" style="fill:#fff;"/><path d="M5070.44,4779.52l-12.099,2.264l2.263,12.099l12.099,-2.263l-2.263,-12.1Z" style="fill:#fff;"/><path d="M4727.18,4718.51l-6.05,1.131l1.132,6.05l6.05,-1.132l-1.132,-6.049Z" style="fill:#fff;"/><path d="M5384.72,4551.67l-6.05,1.132l1.132,6.05l6.05,-1.132l-1.132,-6.05Z" style="fill:#fff;"/></g><g><path d="M1400.19,1391.05l2.263,12.099l12.1,-2.264l-2.264,-12.099l-12.099,2.264Z" style="fill:#fff;"/><path d="M1274.2,1621.25l1.132,6.05l6.05,-1.132l-1.132,-6.05l-6.05,1.132Z" style="fill:#fff;"/><path d="M1350.07,1926.39l1.132,6.05l6.049,-1.132l-1.131,-6.05l-6.05,1.132Z" style="fill:#fff;"/><path d="M1585.7,1713.25l1.132,6.05l6.049,-1.132l-1.131,-6.05l-6.05,1.132Z" style="fill:#fff;"/><path d="M1679.88,1614.23l1.131,6.05l6.05,-1.132l-1.132,-6.05l-6.049,1.132Z" style="fill:#fff;"/><path d="M1827.3,1699.36l1.132,6.049l6.049,-1.131l-1.131,-6.05l-6.05,1.132Z" style="fill:#fff;"/><path d="M1786.2,1412.76l1.131,6.049l6.05,-1.132l-1.132,-6.049l-6.049,1.132Z" style="fill:#fff;"/><path d="M959.576,1780.29l1.132,6.05l6.049,-1.132l-1.131,-6.05l-6.05,1.132Z" style="fill:#fff;"/><path d="M1008.96,1207.53l2.263,12.1l12.1,-2.264l-2.264,-12.099l-12.099,2.263Z" style="fill:#fff;"/><path d="M1133.97,1541.04l1.132,6.05l6.05,-1.132l-1.132,-6.049l-6.05,1.131Z" style="fill:#fff;"/><path d="M960.994,1085.01l1.132,6.049l6.05,-1.131l-1.132,-6.05l-6.05,1.132Z" style="fill:#fff;"/><path d="M885.784,1017.68l1.132,6.05l6.05,-1.132l-1.132,-6.049l-6.05,1.131Z" style="fill:#fff;"/><path d="M1151.54,1099.45l1.132,6.049l6.05,-1.132l-1.132,-6.049l-6.05,1.132Z" style="fill:#fff;"/><path d="M1395.36,1197.85l1.131,6.05l6.05,-1.132l-1.132,-6.05l-6.049,1.132Z" style="fill:#fff;"/><path d="M1178.87,843.885l3.395,18.149l18.149,-3.396l-3.395,-18.149l-18.149,3.396Z" style="fill:#fff;"/><path d="M1660.23,672.434l2.264,12.1l12.099,-2.264l-2.263,-12.099l-12.1,2.263Z" style="fill:#fff;"/><path d="M1818.06,1181.39l1.131,6.05l6.05,-1.132l-1.132,-6.049l-6.049,1.131Z" style="fill:#fff;"/><path d="M1797.46,703.114l1.131,6.05l6.05,-1.132l-1.132,-6.049l-6.049,1.131Z" style="fill:#fff;"/><path d="M2014.73,994.323l1.132,6.049l6.049,-1.132l-1.131,-6.049l-6.05,1.132Z" style="fill:#fff;"/><path d="M2193.32,1580.79l2.263,12.099l12.1,-2.263l-2.264,-12.099l-12.099,2.263Z" style="fill:#fff;"/><path d="M2132.31,1924.06l1.132,6.05l6.05,-1.132l-1.132,-6.05l-6.05,1.132Z" style="fill:#fff;"/><path d="M1965.47,1266.52l1.132,6.05l6.049,-1.132l-1.131,-6.05l-6.05,1.132Z" style="fill:#fff;"/></g><g><path d="M5254.44,1321.37l-12.11,2.208l2.208,12.109l12.11,-2.208l-2.208,-12.109Z" style="fill:#fff;"/><path d="M5024.82,1194.32l-6.055,1.104l1.104,6.055l6.055,-1.104l-1.104,-6.055Z" style="fill:#fff;"/><path d="M4719.34,1268.8l-6.054,1.104l1.104,6.055l6.054,-1.104l-1.104,-6.055Z" style="fill:#fff;"/><path d="M4931.4,1505.4l-6.054,1.104l1.104,6.055l6.055,-1.105l-1.105,-6.054Z" style="fill:#fff;"/><path d="M5029.98,1600.03l-6.055,1.104l1.104,6.055l6.055,-1.104l-1.104,-6.055Z" style="fill:#fff;"/><path d="M4944.18,1747.06l-6.055,1.104l1.104,6.055l6.055,-1.105l-1.104,-6.054Z" style="fill:#fff;"/><path d="M5230.97,1707.28l-6.055,1.104l1.104,6.055l6.055,-1.104l-1.104,-6.055Z" style="fill:#fff;"/><path d="M4867.22,878.974l-6.055,1.104l1.105,6.055l6.054,-1.104l-1.104,-6.055Z" style="fill:#fff;"/><path d="M5439.76,930.98l-12.11,2.209l2.208,12.109l12.11,-2.208l-2.208,-12.11Z" style="fill:#fff;"/><path d="M5105.67,1054.46l-6.055,1.104l1.104,6.055l6.055,-1.104l-1.104,-6.055Z" style="fill:#fff;"/><path d="M5562.49,883.576l-6.055,1.104l1.104,6.055l6.055,-1.104l-1.104,-6.055Z" style="fill:#fff;"/><path d="M5630.16,808.675l-6.055,1.104l1.104,6.055l6.055,-1.104l-1.104,-6.055Z" style="fill:#fff;"/><path d="M5547.18,1074.05l-6.055,1.104l1.104,6.055l6.055,-1.104l-1.104,-6.055Z" style="fill:#fff;"/><path d="M5447.66,1317.42l-6.054,1.104l1.104,6.055l6.055,-1.104l-1.105,-6.055Z" style="fill:#fff;"/><path d="M5802.62,1102.55l-18.165,3.312l3.312,18.165l18.165,-3.313l-3.312,-18.164Z" style="fill:#fff;"/><path d="M5971.86,1584.69l-12.11,2.208l2.209,12.11l12.109,-2.208l-2.208,-12.11Z" style="fill:#fff;"/><path d="M5462.19,1740.19l-6.054,1.104l1.104,6.055l6.054,-1.104l-1.104,-6.055Z" style="fill:#fff;"/><path d="M5940.55,1721.78l-6.055,1.104l1.104,6.055l6.055,-1.105l-1.104,-6.054Z" style="fill:#fff;"/><path d="M5648.35,1937.72l-6.055,1.104l1.104,6.055l6.055,-1.104l-1.104,-6.055Z" style="fill:#fff;"/><path d="M5061.07,2113.62l-12.11,2.208l2.208,12.11l12.11,-2.209l-2.208,-12.109Z" style="fill:#fff;"/><path d="M4718.08,2051.04l-6.054,1.104l1.104,6.055l6.055,-1.104l-1.105,-6.055Z" style="fill:#fff;"/><path d="M5376.39,1887.21l-6.055,1.104l1.104,6.055l6.055,-1.104l-1.104,-6.055Z" style="fill:#fff;"/></g><g><path d="M3787.26,494.807l11.297,-4.887l-4.887,-11.297l-11.297,4.887l4.887,11.297Z" style="fill:#fff;"/><path d="M4039.65,566.685l5.649,-2.444l-2.443,-5.649l-5.649,2.444l2.443,5.649Z" style="fill:#fff;"/><path d="M4320.4,425.114l5.649,-2.443l-2.444,-5.649l-5.648,2.444l2.443,5.648Z" style="fill:#fff;"/><path d="M4060.37,242.546l5.649,-2.443l-2.444,-5.649l-5.649,2.444l2.444,5.648Z" style="fill:#fff;"/><path d="M3942.95,172.636l5.649,-2.444l-2.444,-5.649l-5.648,2.444l2.443,5.649Z" style="fill:#fff;"/><path d="M3993.31,10.027l5.649,-2.444l-2.444,-5.649l-5.649,2.444l2.444,5.649Z" style="fill:#fff;"/><path d="M3722.93,113.579l5.649,-2.444l-2.444,-5.648l-5.648,2.443l2.443,5.649Z" style="fill:#fff;"/><path d="M4264.43,838.269l5.649,-2.444l-2.444,-5.649l-5.649,2.444l2.444,5.649Z" style="fill:#fff;"/><path d="M3694.95,916.975l11.298,-4.888l-4.887,-11.297l-11.298,4.887l4.887,11.298Z" style="fill:#fff;"/><path d="M3992.49,721.201l5.648,-2.443l-2.443,-5.649l-5.649,2.444l2.444,5.648Z" style="fill:#fff;"/><path d="M3586.1,990.885l5.649,-2.443l-2.444,-5.649l-5.649,2.444l2.444,5.648Z" style="fill:#fff;"/><path d="M3537.1,1079.14l5.649,-2.444l-2.444,-5.649l-5.648,2.444l2.443,5.649Z" style="fill:#fff;"/><path d="M3557.98,801.874l5.649,-2.444l-2.444,-5.649l-5.649,2.444l2.444,5.649Z" style="fill:#fff;"/><path d="M3599.93,542.315l5.649,-2.443l-2.444,-5.649l-5.648,2.444l2.443,5.648Z" style="fill:#fff;"/><path d="M3302.7,831.833l16.946,-7.331l-7.33,-16.946l-16.947,7.331l7.331,16.946Z" style="fill:#fff;"/><path d="M3028.89,400.402l11.298,-4.888l-4.887,-11.297l-11.298,4.887l4.887,11.298Z" style="fill:#fff;"/><path d="M3490.25,133.764l5.648,-2.444l-2.443,-5.649l-5.649,2.444l2.444,5.649Z" style="fill:#fff;"/><path d="M3028.42,259.785l5.649,-2.443l-2.443,-5.649l-5.649,2.443l2.443,5.649Z" style="fill:#fff;"/></g><g><path d="M4508.51,2814.64l12.11,2.208l-2.209,12.11l-12.109,-2.208l2.208,-12.11Z" style="fill:#fff;"/><path d="M4738.12,2687.59l6.055,1.104l-1.104,6.054l-6.055,-1.104l1.104,-6.054Z" style="fill:#fff;"/><path d="M5043.61,2762.06l6.055,1.104l-1.104,6.055l-6.055,-1.104l1.104,-6.055Z" style="fill:#fff;"/><path d="M4831.55,2998.66l6.055,1.104l-1.104,6.055l-6.055,-1.104l1.104,-6.055Z" style="fill:#fff;"/><path d="M4732.97,3093.3l6.055,1.104l-1.104,6.055l-6.055,-1.104l1.104,-6.055Z" style="fill:#fff;"/><path d="M4818.77,3240.32l6.054,1.104l-1.104,6.055l-6.054,-1.104l1.104,-6.055Z" style="fill:#fff;"/><path d="M4531.98,3200.54l6.055,1.104l-1.104,6.055l-6.055,-1.104l1.104,-6.055Z" style="fill:#fff;"/><path d="M4895.73,2372.24l6.054,1.105l-1.104,6.054l-6.054,-1.104l1.104,-6.055Z" style="fill:#fff;"/><path d="M4323.19,2424.25l12.11,2.208l-2.208,12.109l-12.11,-2.208l2.208,-12.109Z" style="fill:#fff;"/><path d="M4657.27,2547.73l6.055,1.105l-1.104,6.054l-6.055,-1.104l1.104,-6.055Z" style="fill:#fff;"/><path d="M4200.45,2376.84l6.055,1.105l-1.104,6.054l-6.055,-1.104l1.104,-6.055Z" style="fill:#fff;"/><path d="M4132.78,2301.94l6.055,1.104l-1.104,6.055l-6.055,-1.104l1.104,-6.055Z" style="fill:#fff;"/><path d="M4215.77,2567.32l6.055,1.104l-1.104,6.055l-6.055,-1.104l1.104,-6.055Z" style="fill:#fff;"/><path d="M4315.29,2810.69l6.055,1.104l-1.104,6.055l-6.055,-1.105l1.104,-6.054Z" style="fill:#fff;"/><path d="M3960.33,2595.82l18.165,3.312l-3.313,18.165l-18.164,-3.312l3.312,-18.165Z" style="fill:#fff;"/><path d="M3791.09,3077.96l12.109,2.209l-2.208,12.109l-12.109,-2.208l2.208,-12.11Z" style="fill:#fff;"/><path d="M4300.76,3233.45l6.055,1.104l-1.104,6.054l-6.055,-1.104l1.104,-6.054Z" style="fill:#fff;"/><path d="M3822.39,3215.05l6.055,1.104l-1.104,6.055l-6.055,-1.104l1.104,-6.055Z" style="fill:#fff;"/><path d="M4114.6,3430.99l6.055,1.104l-1.104,6.054l-6.055,-1.104l1.104,-6.054Z" style="fill:#fff;"/><path d="M4701.88,3606.89l12.11,2.208l-2.208,12.11l-12.11,-2.208l2.208,-12.11Z" style="fill:#fff;"/><path d="M5044.86,3544.31l6.055,1.104l-1.104,6.055l-6.055,-1.104l1.104,-6.055Z" style="fill:#fff;"/><path d="M4386.56,3380.48l6.055,1.105l-1.104,6.054l-6.055,-1.104l1.104,-6.055Z" style="fill:#fff;"/></g><g><path d="M4508.51,5349.6l12.11,2.208l-2.209,12.11l-12.109,-2.208l2.208,-12.11Z" style="fill:#fff;"/><path d="M4738.12,5222.55l6.055,1.104l-1.104,6.054l-6.055,-1.104l1.104,-6.054Z" style="fill:#fff;"/><path d="M5043.61,5297.02l6.055,1.104l-1.104,6.055l-6.055,-1.104l1.104,-6.055Z" style="fill:#fff;"/><path d="M4831.55,5533.63l6.055,1.104l-1.104,6.055l-6.055,-1.104l1.104,-6.055Z" style="fill:#fff;"/><path d="M4732.97,5628.26l6.055,1.104l-1.104,6.055l-6.055,-1.104l1.104,-6.055Z" style="fill:#fff;"/><path d="M4818.77,5775.28l6.054,1.104l-1.104,6.055l-6.054,-1.104l1.104,-6.055Z" style="fill:#fff;"/><path d="M4531.98,5735.5l6.055,1.105l-1.104,6.054l-6.055,-1.104l1.104,-6.055Z" style="fill:#fff;"/><path d="M4895.73,4907.2l6.054,1.104l-1.104,6.054l-6.054,-1.104l1.104,-6.054Z" style="fill:#fff;"/><path d="M4323.19,4959.21l12.11,2.208l-2.208,12.11l-12.11,-2.209l2.208,-12.109Z" style="fill:#fff;"/><path d="M4657.27,5082.69l6.055,1.104l-1.104,6.054l-6.055,-1.104l1.104,-6.054Z" style="fill:#fff;"/><path d="M4200.45,4911.81l6.055,1.104l-1.104,6.054l-6.055,-1.104l1.104,-6.054Z" style="fill:#fff;"/><path d="M4132.78,4836.9l6.055,1.104l-1.104,6.055l-6.055,-1.104l1.104,-6.055Z" style="fill:#fff;"/><path d="M4215.77,5102.28l6.055,1.104l-1.104,6.055l-6.055,-1.104l1.104,-6.055Z" style="fill:#fff;"/><path d="M4315.29,5345.65l6.055,1.104l-1.104,6.055l-6.055,-1.104l1.104,-6.055Z" style="fill:#fff;"/><path d="M3960.33,5130.78l18.165,3.312l-3.313,18.165l-18.164,-3.312l3.312,-18.165Z" style="fill:#fff;"/><path d="M3791.09,5612.92l12.109,2.208l-2.208,12.109l-12.109,-2.208l2.208,-12.109Z" style="fill:#fff;"/><path d="M4300.76,5768.42l6.055,1.104l-1.104,6.054l-6.055,-1.104l1.104,-6.054Z" style="fill:#fff;"/><path d="M3822.39,5750.01l6.055,1.104l-1.104,6.055l-6.055,-1.104l1.104,-6.055Z" style="fill:#fff;"/></g><g><path d="M4508.51,3986.3l12.11,2.208l-2.209,12.11l-12.109,-2.208l2.208,-12.11Z" style="fill:#fff;"/><path d="M4738.12,3859.26l6.055,1.104l-1.104,6.055l-6.055,-1.104l1.104,-6.055Z" style="fill:#fff;"/><path d="M5043.61,3933.73l6.055,1.104l-1.104,6.055l-6.055,-1.104l1.104,-6.055Z" style="fill:#fff;"/><path d="M4831.55,4170.33l6.055,1.104l-1.104,6.055l-6.055,-1.104l1.104,-6.055Z" style="fill:#fff;"/><path d="M4732.97,4264.96l6.055,1.104l-1.104,6.055l-6.055,-1.104l1.104,-6.055Z" style="fill:#fff;"/><path d="M4818.77,4411.99l6.054,1.104l-1.104,6.055l-6.054,-1.104l1.104,-6.055Z" style="fill:#fff;"/><path d="M4531.98,4372.21l6.055,1.104l-1.104,6.055l-6.055,-1.104l1.104,-6.055Z" style="fill:#fff;"/><path d="M4895.73,3543.91l6.054,1.104l-1.104,6.055l-6.054,-1.104l1.104,-6.055Z" style="fill:#fff;"/><path d="M4323.19,3595.91l12.11,2.208l-2.208,12.109l-12.11,-2.208l2.208,-12.109Z" style="fill:#fff;"/><path d="M4657.27,3719.39l6.055,1.104l-1.104,6.055l-6.055,-1.104l1.104,-6.055Z" style="fill:#fff;"/><path d="M4200.45,3548.51l6.055,1.104l-1.104,6.055l-6.055,-1.104l1.104,-6.055Z" style="fill:#fff;"/><path d="M4132.78,3473.61l6.055,1.104l-1.104,6.054l-6.055,-1.104l1.104,-6.054Z" style="fill:#fff;"/><path d="M4215.77,3738.99l6.055,1.104l-1.104,6.055l-6.055,-1.104l1.104,-6.055Z" style="fill:#fff;"/><path d="M4315.29,3982.35l6.055,1.104l-1.104,6.054l-6.055,-1.104l1.104,-6.054Z" style="fill:#fff;"/><path d="M3960.33,3767.48l18.165,3.312l-3.313,18.165l-18.164,-3.312l3.312,-18.165Z" style="fill:#fff;"/><path d="M3791.09,4249.62l12.109,2.208l-2.208,12.11l-12.109,-2.208l2.208,-12.11Z" style="fill:#fff;"/><path d="M4300.76,4405.12l6.055,1.104l-1.104,6.055l-6.055,-1.104l1.104,-6.055Z" style="fill:#fff;"/><path d="M3822.39,4386.71l6.055,1.104l-1.104,6.055l-6.055,-1.104l1.104,-6.055Z" style="fill:#fff;"/><path d="M4114.6,4602.65l6.055,1.104l-1.104,6.055l-6.055,-1.104l1.104,-6.055Z" style="fill:#fff;"/><path d="M4701.88,4778.55l12.11,2.208l-2.208,12.11l-12.11,-2.208l2.208,-12.11Z" style="fill:#fff;"/><path d="M5044.86,4715.97l6.055,1.104l-1.104,6.055l-6.055,-1.104l1.104,-6.055Z" style="fill:#fff;"/><path d="M4386.56,4552.14l6.055,1.104l-1.104,6.055l-6.055,-1.104l1.104,-6.055Z" style="fill:#fff;"/></g><g><path d="M2970.78,546.771l2.197,12.112l12.112,-2.197l-2.197,-12.112l-12.112,2.197Z" style="fill:#fff;"/><path d="M2843.52,776.269l1.098,6.056l6.056,-1.099l-1.098,-6.056l-6.056,1.099Z" style="fill:#fff;"/><path d="M2917.7,1081.82l1.099,6.056l6.056,-1.098l-1.099,-6.056l-6.056,1.098Z" style="fill:#fff;"/><path d="M3154.5,869.988l1.098,6.056l6.056,-1.098l-1.099,-6.056l-6.055,1.098Z" style="fill:#fff;"/><path d="M3249.23,771.493l1.098,6.055l6.056,-1.098l-1.098,-6.056l-6.056,1.099Z" style="fill:#fff;"/><path d="M3396.17,857.433l1.098,6.056l6.056,-1.098l-1.099,-6.056l-6.055,1.098Z" style="fill:#fff;"/><path d="M3356.66,570.611l1.099,6.056l6.056,-1.098l-1.099,-6.056l-6.056,1.098Z" style="fill:#fff;"/><path d="M2528.02,933.57l1.098,6.056l6.056,-1.099l-1.098,-6.056l-6.056,1.099Z" style="fill:#fff;"/><path d="M2580.57,361.085l2.196,12.111l12.112,-2.196l-2.197,-12.112l-12.111,2.197Z" style="fill:#fff;"/><path d="M2703.73,695.285l1.099,6.056l6.055,-1.098l-1.098,-6.056l-6.056,1.098Z" style="fill:#fff;"/><path d="M2533.28,238.305l1.098,6.056l6.056,-1.098l-1.099,-6.056l-6.055,1.098Z" style="fill:#fff;"/><path d="M2458.44,170.562l1.098,6.056l6.056,-1.098l-1.098,-6.056l-6.056,1.098Z" style="fill:#fff;"/><path d="M2723.74,253.802l1.098,6.056l6.056,-1.098l-1.098,-6.056l-6.056,1.098Z" style="fill:#fff;"/><path d="M2967.01,353.548l1.098,6.056l6.056,-1.099l-1.098,-6.056l-6.056,1.099Z" style="fill:#fff;"/><path d="M2752.48,-1.612l3.294,18.168l18.168,-3.295l-3.295,-18.168l-18.167,3.295Z" style="fill:#fff;"/><path d="M3389.8,339.421l1.099,6.056l6.056,-1.099l-1.099,-6.056l-6.056,1.099Z" style="fill:#fff;"/><path d="M3587.5,153.443l1.099,6.055l6.056,-1.098l-1.099,-6.056l-6.056,1.099Z" style="fill:#fff;"/><path d="M3762.85,740.891l2.197,12.112l12.112,-2.197l-2.197,-12.112l-12.112,2.197Z" style="fill:#fff;"/><path d="M3699.94,1083.82l1.098,6.055l6.056,-1.098l-1.098,-6.056l-6.056,1.099Z" style="fill:#fff;"/><path d="M3536.74,425.362l1.098,6.055l6.056,-1.098l-1.098,-6.056l-6.056,1.099Z" style="fill:#fff;"/></g><g><path d="M3701.4,2948.51l-0.597,-12.294l12.295,-0.597l0.597,12.295l-12.295,0.596Z" style="fill:#fff;"/><path d="M3525.58,2753.7l-0.298,-6.148l6.147,-0.298l0.299,6.147l-6.148,0.299Z" style="fill:#fff;"/><path d="M3528.8,2439.29l-0.298,-6.148l6.147,-0.298l0.299,6.147l-6.148,0.299Z" style="fill:#fff;"/><path d="M3807.34,2592.13l-0.298,-6.147l6.147,-0.298l0.299,6.147l-6.148,0.298Z" style="fill:#fff;"/><path d="M3921.87,2666.68l-0.298,-6.148l6.147,-0.298l0.299,6.147l-6.148,0.299Z" style="fill:#fff;"/><path d="M4045.6,2549.76l-0.299,-6.147l6.148,-0.299l0.298,6.148l-6.147,0.298Z" style="fill:#fff;"/><path d="M4071.92,2838.09l-0.298,-6.148l6.147,-0.298l0.299,6.147l-6.148,0.299Z" style="fill:#fff;"/><path d="M3182.69,2671.75l-0.298,-6.147l6.147,-0.298l0.298,6.147l-6.147,0.298Z" style="fill:#fff;"/><path d="M3363.24,3217.56l-0.597,-12.295l12.295,-0.596l0.597,12.294l-12.295,0.597Z" style="fill:#fff;"/><path d="M3407.7,2864.17l-0.299,-6.148l6.148,-0.298l0.298,6.147l-6.147,0.299Z" style="fill:#fff;"/><path d="M3344.91,3347.85l-0.298,-6.148l6.147,-0.298l0.299,6.147l-6.148,0.299Z" style="fill:#fff;"/><path d="M3287.32,3430.75l-0.299,-6.147l6.148,-0.299l0.298,6.148l-6.147,0.298Z" style="fill:#fff;"/><path d="M3526.95,3289.72l-0.298,-6.147l6.147,-0.299l0.298,6.148l-6.147,0.298Z" style="fill:#fff;"/><path d="M3741.39,3137.58l-0.299,-6.147l6.148,-0.299l0.298,6.147l-6.147,0.299Z" style="fill:#fff;"/><path d="M3612.66,3532.03l-0.896,-18.442l18.442,-0.895l0.896,18.442l-18.442,0.895Z" style="fill:#fff;"/><path d="M4120.62,3587.48l-0.597,-12.294l12.295,-0.597l0.597,12.295l-12.295,0.596Z" style="fill:#fff;"/><path d="M4156.43,3055.82l-0.298,-6.147l6.147,-0.299l0.298,6.148l-6.147,0.298Z" style="fill:#fff;"/><path d="M4247.03,3525.88l-0.298,-6.148l6.147,-0.298l0.299,6.147l-6.148,0.299Z" style="fill:#fff;"/><path d="M4391.05,3192.31l-0.299,-6.148l6.148,-0.298l0.298,6.147l-6.147,0.299Z" style="fill:#fff;"/><path d="M4429.12,2580.43l-0.597,-12.295l12.295,-0.596l0.597,12.294l-12.295,0.597Z" style="fill:#fff;"/><path d="M4290.36,2260.59l-0.298,-6.147l6.147,-0.298l0.299,6.147l-6.148,0.298Z" style="fill:#fff;"/><path d="M4280.16,2938.89l-0.299,-6.147l6.148,-0.298l0.298,6.147l-6.147,0.298Z" style="fill:#fff;"/></g><g><path d="M3701.4,5483.47l-0.597,-12.295l12.295,-0.597l0.597,12.295l-12.295,0.597Z" style="fill:#fff;"/><path d="M3525.58,5288.66l-0.298,-6.147l6.147,-0.299l0.299,6.147l-6.148,0.299Z" style="fill:#fff;"/><path d="M3528.8,4974.25l-0.298,-6.148l6.147,-0.298l0.299,6.147l-6.148,0.299Z" style="fill:#fff;"/><path d="M3807.34,5127.1l-0.298,-6.147l6.147,-0.298l0.299,6.147l-6.148,0.298Z" style="fill:#fff;"/><path d="M3921.87,5201.64l-0.298,-6.148l6.147,-0.298l0.299,6.147l-6.148,0.299Z" style="fill:#fff;"/><path d="M4045.6,5084.72l-0.299,-6.147l6.148,-0.299l0.298,6.148l-6.147,0.298Z" style="fill:#fff;"/><path d="M4071.92,5373.05l-0.298,-6.148l6.147,-0.298l0.299,6.147l-6.148,0.299Z" style="fill:#fff;"/><path d="M3182.69,5206.72l-0.298,-6.148l6.147,-0.298l0.298,6.147l-6.147,0.299Z" style="fill:#fff;"/><path d="M3363.24,5752.52l-0.597,-12.294l12.295,-0.597l0.597,12.294l-12.295,0.597Z" style="fill:#fff;"/><path d="M3407.7,5399.14l-0.299,-6.148l6.148,-0.298l0.298,6.147l-6.147,0.299Z" style="fill:#fff;"/><path d="M3526.95,5824.68l-0.298,-6.147l6.147,-0.299l0.298,6.148l-6.147,0.298Z" style="fill:#fff;"/><path d="M3741.39,5672.55l-0.299,-6.147l6.148,-0.299l0.298,6.148l-6.147,0.298Z" style="fill:#fff;"/><path d="M4156.43,5590.78l-0.298,-6.147l6.147,-0.299l0.298,6.148l-6.147,0.298Z" style="fill:#fff;"/><path d="M4391.05,5727.27l-0.299,-6.148l6.148,-0.298l0.298,6.147l-6.147,0.299Z" style="fill:#fff;"/><path d="M4429.12,5115.4l-0.597,-12.294l12.295,-0.597l0.597,12.294l-12.295,0.597Z" style="fill:#fff;"/><path d="M4290.36,4795.55l-0.298,-6.147l6.147,-0.298l0.299,6.147l-6.148,0.298Z" style="fill:#fff;"/><path d="M4280.16,5473.86l-0.299,-6.147l6.148,-0.298l0.298,6.147l-6.147,0.298Z" style="fill:#fff;"/></g><g><path d="M3701.4,4120.17l-0.597,-12.294l12.295,-0.597l0.597,12.294l-12.295,0.597Z" style="fill:#fff;"/><path d="M3525.58,3925.36l-0.298,-6.148l6.147,-0.298l0.299,6.147l-6.148,0.299Z" style="fill:#fff;"/><path d="M3528.8,3610.95l-0.298,-6.148l6.147,-0.298l0.299,6.147l-6.148,0.299Z" style="fill:#fff;"/><path d="M3807.34,3763.8l-0.298,-6.147l6.147,-0.299l0.299,6.148l-6.148,0.298Z" style="fill:#fff;"/><path d="M3921.87,3838.34l-0.298,-6.148l6.147,-0.298l0.299,6.147l-6.148,0.299Z" style="fill:#fff;"/><path d="M4045.6,3721.42l-0.299,-6.147l6.148,-0.299l0.298,6.148l-6.147,0.298Z" style="fill:#fff;"/><path d="M4071.92,4009.75l-0.298,-6.147l6.147,-0.298l0.299,6.147l-6.148,0.298Z" style="fill:#fff;"/><path d="M3182.69,3843.42l-0.298,-6.147l6.147,-0.299l0.298,6.148l-6.147,0.298Z" style="fill:#fff;"/><path d="M3363.24,4389.23l-0.597,-12.295l12.295,-0.597l0.597,12.295l-12.295,0.597Z" style="fill:#fff;"/><path d="M3407.7,4035.84l-0.299,-6.147l6.148,-0.298l0.298,6.147l-6.147,0.298Z" style="fill:#fff;"/><path d="M3344.91,4519.51l-0.298,-6.147l6.147,-0.298l0.299,6.147l-6.148,0.298Z" style="fill:#fff;"/><path d="M3287.32,4602.41l-0.299,-6.147l6.148,-0.299l0.298,6.148l-6.147,0.298Z" style="fill:#fff;"/><path d="M3526.95,4461.38l-0.298,-6.147l6.147,-0.299l0.298,6.148l-6.147,0.298Z" style="fill:#fff;"/><path d="M3741.39,4309.25l-0.299,-6.148l6.148,-0.298l0.298,6.147l-6.147,0.299Z" style="fill:#fff;"/><path d="M3612.66,4703.7l-0.896,-18.442l18.442,-0.895l0.896,18.442l-18.442,0.895Z" style="fill:#fff;"/><path d="M4120.62,4759.14l-0.597,-12.294l12.295,-0.597l0.597,12.295l-12.295,0.596Z" style="fill:#fff;"/><path d="M4156.43,4227.48l-0.298,-6.148l6.147,-0.298l0.298,6.147l-6.147,0.299Z" style="fill:#fff;"/><path d="M4247.03,4697.55l-0.298,-6.147l6.147,-0.298l0.299,6.147l-6.148,0.298Z" style="fill:#fff;"/><path d="M4391.05,4363.98l-0.299,-6.147l6.148,-0.298l0.298,6.147l-6.147,0.298Z" style="fill:#fff;"/><path d="M4429.12,3752.1l-0.597,-12.295l12.295,-0.597l0.597,12.295l-12.295,0.597Z" style="fill:#fff;"/><path d="M4290.36,3432.26l-0.298,-6.147l6.147,-0.299l0.299,6.148l-6.148,0.298Z" style="fill:#fff;"/><path d="M4280.16,4110.56l-0.299,-6.147l6.148,-0.299l0.298,6.148l-6.147,0.298Z" style="fill:#fff;"/></g><g><path d="M6415.04,1422.46l-8.779,-8.628l8.628,-8.779l8.779,8.628l-8.628,8.779Z" style="fill:#fff;"/><path d="M6153.71,1398.61l-4.39,-4.314l4.314,-4.389l4.39,4.314l-4.314,4.389Z" style="fill:#fff;"/><path d="M5942.78,1165.42l-4.39,-4.314l4.314,-4.389l4.39,4.314l-4.314,4.389Z" style="fill:#fff;"/><path d="M6251.12,1088.77l-4.389,-4.314l4.314,-4.39l4.39,4.314l-4.315,4.39Z" style="fill:#fff;"/><path d="M6385.84,1065.84l-4.39,-4.314l4.314,-4.389l4.39,4.314l-4.314,4.389Z" style="fill:#fff;"/><path d="M6397.42,896.003l-4.39,-4.314l4.314,-4.39l4.39,4.314l-4.314,4.39Z" style="fill:#fff;"/><path d="M6612.36,1089.99l-4.389,-4.315l4.314,-4.389l4.389,4.314l-4.314,4.39Z" style="fill:#fff;"/><path d="M5846.2,1571.01l-4.39,-4.314l4.315,-4.39l4.389,4.315l-4.314,4.389Z" style="fill:#fff;"/><path d="M6349.11,1849.54l-8.779,-8.628l8.629,-8.779l8.779,8.628l-8.629,8.779Z" style="fill:#fff;"/><path d="M6142.05,1559.74l-4.39,-4.314l4.315,-4.389l4.389,4.314l-4.314,4.389Z" style="fill:#fff;"/><path d="M6424.04,1957.7l-4.39,-4.314l4.314,-4.389l4.39,4.314l-4.314,4.389Z" style="fill:#fff;"/><path d="M6437.96,2057.68l-4.39,-4.314l4.314,-4.389l4.39,4.314l-4.314,4.389Z" style="fill:#fff;"/><path d="M6518.34,1791.5l-4.389,-4.314l4.314,-4.39l4.39,4.314l-4.315,4.39Z" style="fill:#fff;"/><path d="M6572.69,1534.25l-4.39,-4.315l4.314,-4.389l4.39,4.314l-4.314,4.39Z" style="fill:#fff;"/><path d="M6745.69,1911.39l-13.169,-12.943l12.943,-13.168l13.168,12.942l-12.942,13.169Z" style="fill:#fff;"/><path d="M7156.52,1607.53l-8.779,-8.629l8.628,-8.779l8.779,8.628l-8.628,8.78Z" style="fill:#fff;"/><path d="M6822.15,1192.62l-4.389,-4.314l4.314,-4.39l4.389,4.314l-4.314,4.39Z" style="fill:#fff;"/><path d="M7207.61,1476.52l-4.389,-4.314l4.314,-4.39l4.389,4.314l-4.314,4.39Z" style="fill:#fff;"/><path d="M7087.13,1133.75l-4.39,-4.314l4.314,-4.39l4.39,4.314l-4.314,4.39Z" style="fill:#fff;"/><path d="M6700.02,658.363l-8.779,-8.628l8.628,-8.779l8.779,8.628l-8.628,8.779Z" style="fill:#fff;"/><path d="M6381.09,517.507l-4.389,-4.314l4.314,-4.39l4.39,4.314l-4.315,4.39Z" style="fill:#fff;"/><path d="M6833.74,1022.78l-4.39,-4.314l4.314,-4.389l4.39,4.314l-4.314,4.389Z" style="fill:#fff;"/></g><g><path d="M2227.86,599.064l-11.795,3.519l3.518,11.795l11.796,-3.518l-3.519,-11.796Z" style="fill:#fff;"/><path d="M1985.73,497.88l-5.898,1.76l1.759,5.897l5.898,-1.759l-1.759,-5.898Z" style="fill:#fff;"/><path d="M1690.21,605.299l-5.898,1.76l1.76,5.898l5.898,-1.76l-1.76,-5.898Z" style="fill:#fff;"/><path d="M1926.87,817.302l-5.898,1.76l1.76,5.898l5.898,-1.76l-1.76,-5.898Z" style="fill:#fff;"/><path d="M2035.21,900.592l-5.898,1.76l1.759,5.897l5.898,-1.759l-1.759,-5.898Z" style="fill:#fff;"/><path d="M1965.99,1056.12l-5.898,1.759l1.759,5.898l5.898,-1.76l-1.759,-5.897Z" style="fill:#fff;"/><path d="M2246.71,985.222l-5.898,1.759l1.759,5.898l5.898,-1.759l-1.759,-5.898Z" style="fill:#fff;"/><path d="M1794.6,201.649l-5.898,1.759l1.759,5.898l5.898,-1.76l-1.759,-5.897Z" style="fill:#fff;"/><path d="M2369.39,190.755l-11.796,3.519l3.519,11.795l11.796,-3.518l-3.519,-11.796Z" style="fill:#fff;"/><path d="M2050.8,350.015l-5.898,1.759l1.759,5.898l5.898,-1.759l-1.759,-5.898Z" style="fill:#fff;"/><path d="M2486.2,130.218l-5.898,1.759l1.76,5.898l5.898,-1.759l-1.76,-5.898Z" style="fill:#fff;"/><path d="M2545.28,48.368l-5.898,1.76l1.759,5.897l5.898,-1.759l-1.759,-5.898Z" style="fill:#fff;"/><path d="M2491.8,321.228l-5.897,1.759l1.759,5.898l5.898,-1.76l-1.76,-5.897Z" style="fill:#fff;"/><path d="M2419.49,574.014l-5.898,1.759l1.759,5.898l5.898,-1.759l-1.759,-5.898Z" style="fill:#fff;"/><path d="M2748.83,321.629l-17.694,5.278l5.278,17.693l17.694,-5.278l-5.278,-17.693Z" style="fill:#fff;"/><path d="M2969.76,782.38l-11.795,3.518l3.518,11.796l11.796,-3.518l-3.519,-11.796Z" style="fill:#fff;"/><path d="M2480.14,992.66l-5.898,1.76l1.759,5.897l5.898,-1.759l-1.759,-5.898Z" style="fill:#fff;"/><path d="M2953.63,922.068l-5.898,1.76l1.759,5.897l5.898,-1.759l-1.759,-5.898Z" style="fill:#fff;"/><path d="M2686.78,1168.66l-5.898,1.76l1.759,5.898l5.898,-1.76l-1.759,-5.898Z" style="fill:#fff;"/><path d="M2122.25,1407.71l-11.796,3.519l3.519,11.795l11.795,-3.518l-3.518,-11.796Z" style="fill:#fff;"/><path d="M1774.48,1382.99l-5.898,1.76l1.759,5.898l5.898,-1.76l-1.759,-5.898Z" style="fill:#fff;"/><path d="M2410.93,1148.18l-5.898,1.759l1.759,5.898l5.898,-1.759l-1.759,-5.898Z" style="fill:#fff;"/></g><g><path d="M2965.88,3065.43l-12.286,-0.762l0.762,-12.286l12.286,0.763l-0.762,12.285Z" style="fill:#fff;"/><path d="M2752.87,3218.71l-6.143,-0.381l0.382,-6.143l6.142,0.381l-0.381,6.143Z" style="fill:#fff;"/><path d="M2440.73,3180.84l-6.142,-0.381l0.381,-6.143l6.143,0.381l-0.382,6.143Z" style="fill:#fff;"/><path d="M2623.36,2920.85l-6.143,-0.381l0.381,-6.143l6.143,0.382l-0.381,6.142Z" style="fill:#fff;"/><path d="M2710.08,2815.23l-6.143,-0.381l0.381,-6.143l6.143,0.381l-0.381,6.143Z" style="fill:#fff;"/><path d="M2607.51,2679.37l-6.143,-0.381l0.381,-6.143l6.143,0.381l-0.381,6.143Z" style="fill:#fff;"/><path d="M2896.99,2685l-6.143,-0.381l0.382,-6.143l6.142,0.381l-0.381,6.143Z" style="fill:#fff;"/><path d="M2633.62,3550.47l-6.143,-0.381l0.381,-6.143l6.143,0.381l-0.381,6.143Z" style="fill:#fff;"/><path d="M3196.01,3431.2l-12.286,-0.762l0.762,-12.286l12.286,0.763l-0.762,12.285Z" style="fill:#fff;"/><path d="M2849.68,3348.05l-6.143,-0.382l0.381,-6.142l6.143,0.381l-0.381,6.143Z" style="fill:#fff;"/><path d="M3323.48,3463.78l-6.143,-0.381l0.382,-6.143l6.142,0.382l-0.381,6.142Z" style="fill:#fff;"/><path d="M3399.52,3530.16l-6.143,-0.381l0.382,-6.143l6.142,0.381l-0.381,6.143Z" style="fill:#fff;"/><path d="M3285.77,3276.44l-6.143,-0.381l0.381,-6.143l6.143,0.381l-0.381,6.143Z" style="fill:#fff;"/><path d="M3158.21,3046.53l-6.142,-0.381l0.381,-6.143l6.143,0.381l-0.382,6.143Z" style="fill:#fff;"/><path d="M3536.06,3217.98l-18.429,-1.143l1.144,-18.429l18.428,1.144l-1.143,18.428Z" style="fill:#fff;"/><path d="M3647.17,2719.22l-12.285,-0.762l0.762,-12.286l12.286,0.763l-0.763,12.285Z" style="fill:#fff;"/><path d="M3122.7,2625.01l-6.142,-0.381l0.381,-6.143l6.143,0.382l-0.382,6.142Z" style="fill:#fff;"/><path d="M3599.89,2586.79l-6.143,-0.381l0.381,-6.143l6.143,0.381l-0.381,6.143Z" style="fill:#fff;"/><path d="M3284.23,2406.87l-6.143,-0.381l0.381,-6.143l6.143,0.381l-0.381,6.143Z" style="fill:#fff;"/><path d="M2680.29,2301.57l-12.286,-0.763l0.762,-12.285l12.286,0.762l-0.762,12.286Z" style="fill:#fff;"/><path d="M2347.09,2404.22l-6.143,-0.381l0.381,-6.143l6.143,0.381l-0.381,6.143Z" style="fill:#fff;"/><path d="M3020.14,2489.15l-6.143,-0.382l0.382,-6.142l6.142,0.381l-0.381,6.143Z" style="fill:#fff;"/></g><g><path d="M2965.88,5600.39l-12.286,-0.762l0.762,-12.286l12.286,0.763l-0.762,12.285Z" style="fill:#fff;"/><path d="M2752.87,5753.67l-6.143,-0.381l0.382,-6.143l6.142,0.381l-0.381,6.143Z" style="fill:#fff;"/><path d="M2440.73,5715.8l-6.142,-0.381l0.381,-6.143l6.143,0.381l-0.382,6.143Z" style="fill:#fff;"/><path d="M2623.36,5455.81l-6.143,-0.382l0.381,-6.143l6.143,0.382l-0.381,6.143Z" style="fill:#fff;"/><path d="M2710.08,5350.19l-6.143,-0.381l0.381,-6.143l6.143,0.381l-0.381,6.143Z" style="fill:#fff;"/><path d="M2607.51,5214.33l-6.143,-0.381l0.381,-6.143l6.143,0.381l-0.381,6.143Z" style="fill:#fff;"/><path d="M2896.99,5219.96l-6.143,-0.381l0.382,-6.143l6.142,0.381l-0.381,6.143Z" style="fill:#fff;"/><path d="M3285.77,5811.41l-6.143,-0.381l0.381,-6.143l6.143,0.381l-0.381,6.143Z" style="fill:#fff;"/><path d="M3158.21,5581.5l-6.142,-0.381l0.381,-6.143l6.143,0.381l-0.382,6.143Z" style="fill:#fff;"/><path d="M3536.06,5752.94l-18.429,-1.143l1.144,-18.429l18.428,1.144l-1.143,18.428Z" style="fill:#fff;"/><path d="M3647.17,5254.18l-12.285,-0.762l0.762,-12.286l12.286,0.763l-0.763,12.285Z" style="fill:#fff;"/><path d="M3122.7,5159.97l-6.142,-0.381l0.381,-6.143l6.143,0.382l-0.382,6.142Z" style="fill:#fff;"/><path d="M3599.89,5121.75l-6.143,-0.381l0.381,-6.143l6.143,0.381l-0.381,6.143Z" style="fill:#fff;"/><path d="M3284.23,4941.84l-6.143,-0.381l0.381,-6.143l6.143,0.381l-0.381,6.143Z" style="fill:#fff;"/><path d="M2680.29,4836.53l-12.286,-0.762l0.762,-12.286l12.286,0.762l-0.762,12.286Z" style="fill:#fff;"/><path d="M2347.09,4939.18l-6.143,-0.381l0.381,-6.143l6.143,0.381l-0.381,6.143Z" style="fill:#fff;"/><path d="M3020.14,5024.11l-6.143,-0.381l0.382,-6.143l6.142,0.381l-0.381,6.143Z" style="fill:#fff;"/></g><g><path d="M2965.88,4237.1l-12.286,-0.762l0.762,-12.286l12.286,0.763l-0.762,12.285Z" style="fill:#fff;"/><path d="M2752.87,4390.38l-6.143,-0.381l0.382,-6.143l6.142,0.381l-0.381,6.143Z" style="fill:#fff;"/><path d="M2440.73,4352.51l-6.142,-0.381l0.381,-6.143l6.143,0.381l-0.382,6.143Z" style="fill:#fff;"/><path d="M2623.36,4092.51l-6.143,-0.381l0.381,-6.143l6.143,0.381l-0.381,6.143Z" style="fill:#fff;"/><path d="M2710.08,3986.9l-6.143,-0.382l0.381,-6.142l6.143,0.381l-0.381,6.143Z" style="fill:#fff;"/><path d="M2607.51,3851.04l-6.143,-0.381l0.381,-6.143l6.143,0.381l-0.381,6.143Z" style="fill:#fff;"/><path d="M2896.99,3856.67l-6.143,-0.381l0.382,-6.143l6.142,0.381l-0.381,6.143Z" style="fill:#fff;"/><path d="M2633.62,4722.13l-6.143,-0.381l0.381,-6.143l6.143,0.381l-0.381,6.143Z" style="fill:#fff;"/><path d="M3196.01,4602.87l-12.286,-0.762l0.762,-12.286l12.286,0.763l-0.762,12.285Z" style="fill:#fff;"/><path d="M2849.68,4519.71l-6.143,-0.382l0.381,-6.142l6.143,0.381l-0.381,6.143Z" style="fill:#fff;"/><path d="M3323.48,4635.44l-6.143,-0.381l0.382,-6.143l6.142,0.382l-0.381,6.142Z" style="fill:#fff;"/><path d="M3399.52,4701.83l-6.143,-0.381l0.382,-6.143l6.142,0.381l-0.381,6.143Z" style="fill:#fff;"/><path d="M3285.77,4448.11l-6.143,-0.381l0.381,-6.143l6.143,0.381l-0.381,6.143Z" style="fill:#fff;"/><path d="M3158.21,4218.2l-6.142,-0.381l0.381,-6.143l6.143,0.381l-0.382,6.143Z" style="fill:#fff;"/><path d="M3536.06,4389.64l-18.429,-1.143l1.144,-18.429l18.428,1.144l-1.143,18.428Z" style="fill:#fff;"/><path d="M3647.17,3890.89l-12.285,-0.762l0.762,-12.286l12.286,0.763l-0.763,12.285Z" style="fill:#fff;"/><path d="M3122.7,3796.68l-6.142,-0.381l0.381,-6.143l6.143,0.381l-0.382,6.143Z" style="fill:#fff;"/><path d="M3599.89,3758.45l-6.143,-0.381l0.381,-6.143l6.143,0.381l-0.381,6.143Z" style="fill:#fff;"/><path d="M3284.23,3578.54l-6.143,-0.381l0.381,-6.143l6.143,0.381l-0.381,6.143Z" style="fill:#fff;"/><path d="M2680.29,3473.23l-12.286,-0.763l0.762,-12.285l12.286,0.762l-0.762,12.286Z" style="fill:#fff;"/><path d="M2347.09,3575.89l-6.143,-0.381l0.381,-6.143l6.143,0.381l-0.381,6.143Z" style="fill:#fff;"/><path d="M3020.14,3660.82l-6.143,-0.382l0.382,-6.142l6.142,0.381l-0.381,6.143Z" style="fill:#fff;"/></g><g><path d="M5953.97,2007.34l-9.544,7.774l-7.774,-9.543l9.544,-7.775l7.774,9.544Z" style="fill:#fff;"/><path d="M5901.45,2264.45l-4.771,3.888l-3.888,-4.772l4.772,-3.887l3.887,4.771Z" style="fill:#fff;"/><path d="M5646.43,2448.38l-4.772,3.888l-3.887,-4.772l4.772,-3.887l3.887,4.771Z" style="fill:#fff;"/><path d="M5604.23,2133.47l-4.772,3.888l-3.887,-4.772l4.771,-3.887l3.888,4.771Z" style="fill:#fff;"/><path d="M5596.3,1997.04l-4.772,3.887l-3.887,-4.772l4.771,-3.887l3.888,4.772Z" style="fill:#fff;"/><path d="M5428.77,1966.8l-4.772,3.888l-3.887,-4.772l4.772,-3.887l3.887,4.771Z" style="fill:#fff;"/><path d="M5645.27,1774.57l-4.771,3.887l-3.887,-4.772l4.771,-3.887l3.887,4.772Z" style="fill:#fff;"/><path d="M6038.89,2589.09l-4.772,3.887l-3.887,-4.772l4.772,-3.887l3.887,4.772Z" style="fill:#fff;"/><path d="M6371.17,2119.96l-9.543,7.774l-7.774,-9.544l9.543,-7.774l7.774,9.544Z" style="fill:#fff;"/><path d="M6060.31,2293.8l-4.772,3.887l-3.887,-4.772l4.772,-3.887l3.887,4.772Z" style="fill:#fff;"/><path d="M6486.93,2057.41l-4.771,3.887l-3.887,-4.771l4.771,-3.888l3.887,4.772Z" style="fill:#fff;"/><path d="M6587.84,2054.6l-4.772,3.887l-3.887,-4.772l4.772,-3.887l3.887,4.772Z" style="fill:#fff;"/><path d="M6332.14,1945.36l-4.771,3.887l-3.888,-4.772l4.772,-3.887l3.887,4.772Z" style="fill:#fff;"/><path d="M6082.45,1862.98l-4.772,3.887l-3.887,-4.771l4.772,-3.888l3.887,4.772Z" style="fill:#fff;"/><path d="M6476.37,1732.61l-14.315,11.662l-11.661,-14.316l14.315,-11.661l11.661,14.315Z" style="fill:#fff;"/><path d="M6219.66,1290.79l-9.543,7.774l-7.775,-9.543l9.544,-7.775l7.774,9.544Z" style="fill:#fff;"/><path d="M5770.41,1577.37l-4.771,3.887l-3.888,-4.772l4.772,-3.887l3.887,4.772Z" style="fill:#fff;"/><path d="M6095.08,1225.57l-4.772,3.887l-3.887,-4.772l4.771,-3.887l3.888,4.772Z" style="fill:#fff;"/><path d="M5741.11,1307.52l-4.772,3.887l-3.887,-4.772l4.771,-3.887l3.888,4.772Z" style="fill:#fff;"/><path d="M5225.95,1639.86l-9.543,7.774l-7.775,-9.544l9.544,-7.774l7.774,9.544Z" style="fill:#fff;"/><path d="M5050.78,1941.31l-4.772,3.887l-3.887,-4.772l4.772,-3.887l3.887,4.772Z" style="fill:#fff;"/><path d="M5602.89,1547.13l-4.772,3.887l-3.887,-4.772l4.771,-3.887l3.888,4.772Z" style="fill:#fff;"/></g><g><path d="M7456.84,1360.02l-8.608,-8.799l-8.799,8.607l8.608,8.8l8.799,-8.608Z" style="fill:#fff;"/><path d="M7433.6,1098.62l-4.304,-4.4l-4.399,4.304l4.304,4.4l4.399,-4.304Z" style="fill:#fff;"/><path d="M7200.9,887.161l-4.304,-4.4l-4.399,4.304l4.304,4.4l4.399,-4.304Z" style="fill:#fff;"/><path d="M7123.53,1195.32l-4.304,-4.4l-4.399,4.304l4.304,4.4l4.399,-4.304Z" style="fill:#fff;"/><path d="M7100.28,1329.99l-4.304,-4.4l-4.4,4.304l4.304,4.4l4.4,-4.304Z" style="fill:#fff;"/><path d="M6930.42,1341.18l-4.304,-4.4l-4.4,4.304l4.304,4.4l4.4,-4.304Z" style="fill:#fff;"/><path d="M7123.91,1556.56l-4.304,-4.399l-4.399,4.304l4.304,4.399l4.399,-4.304Z" style="fill:#fff;"/><path d="M7606.71,791.516l-4.304,-4.399l-4.4,4.304l4.304,4.399l4.4,-4.304Z" style="fill:#fff;"/><path d="M7884.07,1295.07l-8.608,-8.799l-8.799,8.608l8.608,8.799l8.799,-8.608Z" style="fill:#fff;"/><path d="M7594.76,1087.34l-4.304,-4.399l-4.4,4.304l4.304,4.399l4.4,-4.304Z" style="fill:#fff;"/><path d="M7992.06,1370.25l-4.304,-4.4l-4.4,4.304l4.304,4.4l4.4,-4.304Z" style="fill:#fff;"/><path d="M8092,1384.4l-4.304,-4.399l-4.399,4.304l4.304,4.399l4.399,-4.304Z" style="fill:#fff;"/><path d="M7825.64,1464.17l-4.303,-4.4l-4.4,4.304l4.304,4.399l4.399,-4.303Z" style="fill:#fff;"/><path d="M7568.26,1517.92l-4.304,-4.4l-4.4,4.304l4.304,4.4l4.4,-4.304Z" style="fill:#fff;"/><path d="M7945,1691.8l-12.911,-13.199l-13.199,12.912l12.912,13.199l13.198,-12.912Z" style="fill:#fff;"/><path d="M7640.19,2101.91l-8.608,-8.799l-8.799,8.608l8.608,8.799l8.799,-8.608Z" style="fill:#fff;"/><path d="M7226.06,1766.59l-4.303,-4.4l-4.4,4.304l4.304,4.4l4.399,-4.304Z" style="fill:#fff;"/><path d="M7509.06,2152.7l-4.304,-4.4l-4.399,4.304l4.304,4.4l4.399,-4.304Z" style="fill:#fff;"/><path d="M7166.57,2031.43l-4.304,-4.4l-4.399,4.304l4.304,4.4l4.399,-4.304Z" style="fill:#fff;"/><path d="M6692.08,1643.22l-8.608,-8.8l-8.799,8.608l8.608,8.799l8.799,-8.607Z" style="fill:#fff;"/><path d="M6551.97,1323.96l-4.303,-4.4l-4.4,4.304l4.304,4.4l4.399,-4.304Z" style="fill:#fff;"/><path d="M7056.2,1777.78l-4.304,-4.4l-4.4,4.304l4.304,4.4l4.4,-4.304Z" style="fill:#fff;"/></g><g><path d="M1633.09,954.805l10.374,6.626l6.626,-10.373l-10.373,-6.627l-6.627,10.374Z" style="fill:#fff;"/><path d="M1714.79,1204.18l5.187,3.314l3.313,-5.187l-5.187,-3.313l-3.313,5.186Z" style="fill:#fff;"/><path d="M1989.25,1357.6l5.187,3.314l3.313,-5.187l-5.187,-3.313l-3.313,5.186Z" style="fill:#fff;"/><path d="M1995,1039.93l5.187,3.313l3.313,-5.187l-5.187,-3.313l-3.313,5.187Z" style="fill:#fff;"/><path d="M1987.21,903.493l5.187,3.313l3.313,-5.187l-5.186,-3.313l-3.314,5.187Z" style="fill:#fff;"/><path d="M2150.15,854.21l5.186,3.313l3.314,-5.186l-5.187,-3.314l-3.313,5.187Z" style="fill:#fff;"/><path d="M1913,688.114l5.187,3.313l3.313,-5.187l-5.186,-3.313l-3.314,5.187Z" style="fill:#fff;"/><path d="M1615.55,1542.47l5.187,3.313l3.313,-5.187l-5.186,-3.313l-3.314,5.187Z" style="fill:#fff;"/><path d="M1231.58,1114.6l10.374,6.627l6.626,-10.374l-10.373,-6.626l-6.627,10.373Z" style="fill:#fff;"/><path d="M1560.35,1251.59l5.186,3.314l3.314,-5.187l-5.187,-3.313l-3.313,5.186Z" style="fill:#fff;"/><path d="M1109.4,1065.77l5.187,3.314l3.313,-5.187l-5.187,-3.313l-3.313,5.186Z" style="fill:#fff;"/><path d="M1008.84,1074.57l5.187,3.314l3.313,-5.187l-5.187,-3.313l-3.313,5.186Z" style="fill:#fff;"/><path d="M1250.29,936.677l5.187,3.313l3.313,-5.186l-5.186,-3.314l-3.314,5.187Z" style="fill:#fff;"/><path d="M1488.87,826.16l5.187,3.313l3.313,-5.186l-5.187,-3.314l-3.313,5.187Z" style="fill:#fff;"/><path d="M1082.59,741.906l15.56,9.94l9.94,-15.56l-15.56,-9.94l-9.94,15.56Z" style="fill:#fff;"/><path d="M1286.84,273.523l10.374,6.627l6.626,-10.374l-10.373,-6.626l-6.627,10.373Z" style="fill:#fff;"/><path d="M1766.04,506.596l5.186,3.313l3.314,-5.187l-5.187,-3.313l-3.313,5.187Z" style="fill:#fff;"/><path d="M1403.1,194.421l5.187,3.314l3.313,-5.187l-5.186,-3.313l-3.314,5.186Z" style="fill:#fff;"/><path d="M1764.14,235.169l5.187,3.313l3.313,-5.186l-5.187,-3.313l-3.313,5.186Z" style="fill:#fff;"/><path d="M2314.08,506.128l10.373,6.626l6.627,-10.373l-10.374,-6.627l-6.626,10.374Z" style="fill:#fff;"/><path d="M2522.71,785.465l5.186,3.313l3.314,-5.187l-5.187,-3.313l-3.313,5.187Z" style="fill:#fff;"/><path d="M1928.97,457.313l5.187,3.314l3.313,-5.187l-5.187,-3.313l-3.313,5.186Z" style="fill:#fff;"/></g><g><path d="M2306.11,2853.28l8.608,-8.799l8.799,8.608l-8.608,8.799l-8.799,-8.608Z" style="fill:#fff;"/><path d="M2329.35,2591.89l4.304,-4.399l4.4,4.304l-4.304,4.399l-4.4,-4.304Z" style="fill:#fff;"/><path d="M2562.05,2380.43l4.303,-4.4l4.4,4.304l-4.304,4.4l-4.399,-4.304Z" style="fill:#fff;"/><path d="M2639.42,2688.59l4.304,-4.399l4.399,4.304l-4.304,4.399l-4.399,-4.304Z" style="fill:#fff;"/><path d="M2662.66,2823.25l4.304,-4.4l4.4,4.304l-4.304,4.4l-4.4,-4.304Z" style="fill:#fff;"/><path d="M2832.52,2834.44l4.304,-4.4l4.4,4.304l-4.304,4.4l-4.4,-4.304Z" style="fill:#fff;"/><path d="M2639.04,3049.83l4.303,-4.4l4.4,4.304l-4.304,4.4l-4.399,-4.304Z" style="fill:#fff;"/><path d="M2156.24,2284.78l4.304,-4.4l4.4,4.304l-4.304,4.399l-4.4,-4.303Z" style="fill:#fff;"/><path d="M1878.87,2788.34l8.608,-8.799l8.799,8.607l-8.608,8.8l-8.799,-8.608Z" style="fill:#fff;"/><path d="M2168.19,2580.61l4.304,-4.4l4.399,4.304l-4.303,4.4l-4.4,-4.304Z" style="fill:#fff;"/><path d="M1770.89,2863.51l4.304,-4.399l4.399,4.304l-4.303,4.399l-4.4,-4.304Z" style="fill:#fff;"/><path d="M1670.95,2877.67l4.304,-4.4l4.399,4.304l-4.304,4.4l-4.399,-4.304Z" style="fill:#fff;"/><path d="M1937.31,2957.44l4.304,-4.4l4.4,4.304l-4.304,4.4l-4.4,-4.304Z" style="fill:#fff;"/><path d="M2194.68,3011.19l4.304,-4.399l4.399,4.303l-4.304,4.4l-4.399,-4.304Z" style="fill:#fff;"/><path d="M1817.95,3185.06l12.911,-13.198l13.199,12.911l-12.912,13.199l-13.198,-12.912Z" style="fill:#fff;"/><path d="M2122.76,3595.18l8.608,-8.799l8.799,8.608l-8.608,8.799l-8.799,-8.608Z" style="fill:#fff;"/><path d="M2536.89,3259.86l4.304,-4.4l4.4,4.304l-4.304,4.4l-4.4,-4.304Z" style="fill:#fff;"/><path d="M2253.88,3645.97l4.304,-4.399l4.399,4.304l-4.304,4.399l-4.399,-4.304Z" style="fill:#fff;"/><path d="M2596.38,3524.69l4.304,-4.399l4.399,4.304l-4.304,4.399l-4.399,-4.304Z" style="fill:#fff;"/><path d="M3070.86,3136.48l8.608,-8.799l8.799,8.608l-8.608,8.799l-8.799,-8.608Z" style="fill:#fff;"/><path d="M3210.98,2817.23l4.304,-4.4l4.4,4.304l-4.304,4.4l-4.4,-4.304Z" style="fill:#fff;"/><path d="M2706.75,3271.05l4.304,-4.4l4.4,4.304l-4.304,4.4l-4.4,-4.304Z" style="fill:#fff;"/></g><g><path d="M2306.11,5388.24l8.608,-8.799l8.799,8.608l-8.608,8.799l-8.799,-8.608Z" style="fill:#fff;"/><path d="M2329.35,5126.85l4.304,-4.399l4.4,4.304l-4.304,4.399l-4.4,-4.304Z" style="fill:#fff;"/><path d="M2562.05,4915.39l4.303,-4.4l4.4,4.304l-4.304,4.4l-4.399,-4.304Z" style="fill:#fff;"/><path d="M2639.42,5223.55l4.304,-4.399l4.399,4.304l-4.304,4.399l-4.399,-4.304Z" style="fill:#fff;"/><path d="M2662.66,5358.22l4.304,-4.4l4.4,4.304l-4.304,4.4l-4.4,-4.304Z" style="fill:#fff;"/><path d="M2832.52,5369.41l4.304,-4.4l4.4,4.304l-4.304,4.4l-4.4,-4.304Z" style="fill:#fff;"/><path d="M2639.04,5584.79l4.303,-4.4l4.4,4.304l-4.304,4.4l-4.399,-4.304Z" style="fill:#fff;"/><path d="M2156.24,4819.75l4.304,-4.4l4.4,4.304l-4.304,4.4l-4.4,-4.304Z" style="fill:#fff;"/><path d="M1878.87,5323.3l8.608,-8.799l8.799,8.608l-8.608,8.799l-8.799,-8.608Z" style="fill:#fff;"/><path d="M2168.19,5115.57l4.304,-4.4l4.399,4.304l-4.303,4.4l-4.4,-4.304Z" style="fill:#fff;"/><path d="M1770.89,5398.48l4.304,-4.399l4.399,4.304l-4.303,4.399l-4.4,-4.304Z" style="fill:#fff;"/><path d="M1670.95,5412.63l4.304,-4.4l4.399,4.304l-4.304,4.4l-4.399,-4.304Z" style="fill:#fff;"/><path d="M1937.31,5492.4l4.304,-4.4l4.4,4.304l-4.304,4.4l-4.4,-4.304Z" style="fill:#fff;"/><path d="M2194.68,5546.15l4.304,-4.399l4.399,4.304l-4.304,4.399l-4.399,-4.304Z" style="fill:#fff;"/><path d="M1817.95,5720.03l12.911,-13.198l13.199,12.912l-12.912,13.198l-13.198,-12.912Z" style="fill:#fff;"/><path d="M2536.89,5794.82l4.304,-4.399l4.4,4.304l-4.304,4.399l-4.4,-4.304Z" style="fill:#fff;"/><path d="M3070.86,5671.45l8.608,-8.799l8.799,8.608l-8.608,8.799l-8.799,-8.608Z" style="fill:#fff;"/><path d="M3210.98,5352.19l4.304,-4.399l4.4,4.304l-4.304,4.399l-4.4,-4.304Z" style="fill:#fff;"/><path d="M2706.75,5806.01l4.304,-4.399l4.4,4.303l-4.304,4.4l-4.4,-4.304Z" style="fill:#fff;"/></g><g><path d="M2306.11,4024.95l8.608,-8.799l8.799,8.608l-8.608,8.799l-8.799,-8.608Z" style="fill:#fff;"/><path d="M2329.35,3763.56l4.304,-4.399l4.4,4.304l-4.304,4.399l-4.4,-4.304Z" style="fill:#fff;"/><path d="M2562.05,3552.09l4.303,-4.4l4.4,4.304l-4.304,4.4l-4.399,-4.304Z" style="fill:#fff;"/><path d="M2639.42,3860.25l4.304,-4.399l4.399,4.304l-4.304,4.399l-4.399,-4.304Z" style="fill:#fff;"/><path d="M2662.66,3994.92l4.304,-4.4l4.4,4.304l-4.304,4.4l-4.4,-4.304Z" style="fill:#fff;"/><path d="M2832.52,4006.11l4.304,-4.4l4.4,4.304l-4.304,4.4l-4.4,-4.304Z" style="fill:#fff;"/><path d="M2639.04,4221.49l4.303,-4.4l4.4,4.304l-4.304,4.4l-4.399,-4.304Z" style="fill:#fff;"/><path d="M2156.24,3456.45l4.304,-4.399l4.4,4.304l-4.304,4.399l-4.4,-4.304Z" style="fill:#fff;"/><path d="M1878.87,3960.01l8.608,-8.799l8.799,8.607l-8.608,8.799l-8.799,-8.607Z" style="fill:#fff;"/><path d="M2168.19,3752.27l4.304,-4.4l4.399,4.304l-4.303,4.4l-4.4,-4.304Z" style="fill:#fff;"/><path d="M1770.89,4035.18l4.304,-4.4l4.399,4.304l-4.303,4.4l-4.4,-4.304Z" style="fill:#fff;"/><path d="M1670.95,4049.33l4.304,-4.4l4.399,4.304l-4.304,4.4l-4.399,-4.304Z" style="fill:#fff;"/><path d="M1937.31,4129.1l4.304,-4.4l4.4,4.304l-4.304,4.4l-4.4,-4.304Z" style="fill:#fff;"/><path d="M2194.68,4182.85l4.304,-4.4l4.399,4.304l-4.304,4.4l-4.399,-4.304Z" style="fill:#fff;"/><path d="M1817.95,4356.73l12.911,-13.198l13.199,12.911l-12.912,13.199l-13.198,-12.912Z" style="fill:#fff;"/><path d="M2122.76,4766.85l8.608,-8.799l8.799,8.608l-8.608,8.799l-8.799,-8.608Z" style="fill:#fff;"/><path d="M2536.89,4431.53l4.304,-4.4l4.4,4.304l-4.304,4.4l-4.4,-4.304Z" style="fill:#fff;"/><path d="M2253.88,4817.63l4.304,-4.399l4.399,4.303l-4.304,4.4l-4.399,-4.304Z" style="fill:#fff;"/><path d="M2596.38,4696.36l4.304,-4.399l4.399,4.304l-4.304,4.399l-4.399,-4.304Z" style="fill:#fff;"/><path d="M3070.86,4308.15l8.608,-8.799l8.799,8.608l-8.608,8.799l-8.799,-8.608Z" style="fill:#fff;"/><path d="M3210.98,3988.89l4.304,-4.4l4.4,4.304l-4.304,4.4l-4.4,-4.304Z" style="fill:#fff;"/><path d="M2706.75,4442.72l4.304,-4.4l4.4,4.304l-4.304,4.4l-4.4,-4.304Z" style="fill:#fff;"/></g><g><path d="M5325.31,2299.04l0.355,-12.304l12.304,0.355l-0.355,12.304l-12.304,-0.355Z" style="fill:#fff;"/><path d="M5165.06,2091.23l0.177,-6.152l6.152,0.178l-0.177,6.152l-6.152,-0.178Z" style="fill:#fff;"/><path d="M5192.58,1778.01l0.177,-6.153l6.152,0.178l-0.177,6.152l-6.152,-0.177Z" style="fill:#fff;"/><path d="M5458.47,1951.92l0.177,-6.152l6.152,0.178l-0.177,6.152l-6.152,-0.178Z" style="fill:#fff;"/><path d="M5566.9,2035.1l0.177,-6.152l6.152,0.177l-0.177,6.153l-6.152,-0.178Z" style="fill:#fff;"/><path d="M5699.29,1928.09l0.178,-6.152l6.152,0.177l-0.178,6.152l-6.152,-0.177Z" style="fill:#fff;"/><path d="M5703.25,2217.59l0.177,-6.152l6.153,0.177l-0.178,6.152l-6.152,-0.177Z" style="fill:#fff;"/><path d="M4829.54,1983.03l0.178,-6.152l6.152,0.177l-0.178,6.152l-6.152,-0.177Z" style="fill:#fff;"/><path d="M4967.36,2541.16l0.355,-12.304l12.305,0.355l-0.356,12.304l-12.304,-0.355Z" style="fill:#fff;"/><path d="M5039,2192.26l0.178,-6.152l6.152,0.178l-0.178,6.152l-6.152,-0.178Z" style="fill:#fff;"/><path d="M4939.02,2669.64l0.177,-6.152l6.152,0.177l-0.177,6.152l-6.152,-0.177Z" style="fill:#fff;"/><path d="M4875.19,2747.84l0.178,-6.152l6.152,0.177l-0.178,6.153l-6.152,-0.178Z" style="fill:#fff;"/><path d="M5125.01,2625.75l0.177,-6.152l6.153,0.178l-0.178,6.152l-6.152,-0.178Z" style="fill:#fff;"/><path d="M5350.56,2490.64l0.178,-6.152l6.152,0.178l-0.178,6.152l-6.152,-0.178Z" style="fill:#fff;"/><path d="M5191.73,2873.97l0.532,-18.457l18.457,0.533l-0.533,18.456l-18.456,-0.532Z" style="fill:#fff;"/><path d="M5693.89,2968.5l0.355,-12.304l12.305,0.355l-0.356,12.305l-12.304,-0.356Z" style="fill:#fff;"/><path d="M5770.68,2441.2l0.178,-6.152l6.152,0.177l-0.178,6.152l-6.152,-0.177Z" style="fill:#fff;"/><path d="M5824.68,2916.86l0.178,-6.152l6.152,0.177l-0.178,6.152l-6.152,-0.177Z" style="fill:#fff;"/><path d="M5994.05,2595.42l0.178,-6.152l6.152,0.178l-0.178,6.152l-6.152,-0.178Z" style="fill:#fff;"/><path d="M6079.3,1988.32l0.355,-12.304l12.304,0.355l-0.355,12.304l-12.304,-0.355Z" style="fill:#fff;"/><path d="M5965.67,1658.7l0.177,-6.152l6.152,0.178l-0.177,6.152l-6.152,-0.178Z" style="fill:#fff;"/><path d="M5903.07,2334.19l0.178,-6.153l6.152,0.178l-0.178,6.152l-6.152,-0.177Z" style="fill:#fff;"/></g><g><path d="M1400.1,2142.73l2.208,-12.11l12.109,2.209l-2.208,12.109l-12.109,-2.208Z" style="fill:#fff;"/><path d="M1273.06,1913.11l1.104,-6.055l6.055,1.104l-1.104,6.055l-6.055,-1.104Z" style="fill:#fff;"/><path d="M1347.53,1607.63l1.104,-6.055l6.055,1.104l-1.104,6.055l-6.055,-1.104Z" style="fill:#fff;"/><path d="M1584.13,1819.69l1.104,-6.055l6.054,1.104l-1.104,6.055l-6.054,-1.104Z" style="fill:#fff;"/><path d="M1678.77,1918.27l1.104,-6.055l6.054,1.104l-1.104,6.055l-6.054,-1.104Z" style="fill:#fff;"/><path d="M1825.79,1832.47l1.104,-6.054l6.054,1.104l-1.104,6.054l-6.054,-1.104Z" style="fill:#fff;"/><path d="M1786.01,2119.26l1.104,-6.055l6.055,1.104l-1.104,6.055l-6.055,-1.104Z" style="fill:#fff;"/><path d="M957.707,1755.51l1.104,-6.054l6.055,1.104l-1.104,6.054l-6.055,-1.104Z" style="fill:#fff;"/><path d="M1009.71,2328.05l2.208,-12.11l12.11,2.208l-2.208,12.11l-12.11,-2.208Z" style="fill:#fff;"/><path d="M1133.19,1993.96l1.104,-6.055l6.055,1.104l-1.104,6.055l-6.055,-1.104Z" style="fill:#fff;"/><path d="M962.309,2450.78l1.104,-6.055l6.055,1.104l-1.104,6.055l-6.055,-1.104Z" style="fill:#fff;"/><path d="M887.408,2518.45l1.104,-6.055l6.055,1.104l-1.104,6.055l-6.055,-1.104Z" style="fill:#fff;"/><path d="M1152.79,2435.47l1.104,-6.055l6.055,1.104l-1.104,6.055l-6.055,-1.104Z" style="fill:#fff;"/><path d="M1396.15,2335.95l1.104,-6.055l6.055,1.104l-1.104,6.055l-6.055,-1.104Z" style="fill:#fff;"/><path d="M1181.28,2690.91l3.312,-18.165l18.164,3.313l-3.312,18.164l-18.164,-3.312Z" style="fill:#fff;"/><path d="M1663.42,2860.15l2.208,-12.109l12.11,2.208l-2.208,12.109l-12.11,-2.208Z" style="fill:#fff;"/><path d="M1818.92,2350.48l1.104,-6.055l6.055,1.104l-1.104,6.055l-6.055,-1.104Z" style="fill:#fff;"/><path d="M1800.51,2828.84l1.104,-6.055l6.054,1.104l-1.104,6.055l-6.054,-1.104Z" style="fill:#fff;"/><path d="M2016.45,2536.64l1.104,-6.055l6.055,1.104l-1.104,6.055l-6.055,-1.104Z" style="fill:#fff;"/><path d="M2192.36,1949.36l2.208,-12.11l12.109,2.208l-2.208,12.11l-12.109,-2.208Z" style="fill:#fff;"/><path d="M2129.77,1606.37l1.104,-6.055l6.055,1.104l-1.104,6.055l-6.055,-1.104Z" style="fill:#fff;"/><path d="M1965.94,2264.68l1.104,-6.055l6.055,1.104l-1.104,6.055l-6.055,-1.104Z" style="fill:#fff;"/></g><g><path d="M1533.97,2949.83l-12.295,0.597l-0.597,-12.295l12.295,-0.597l0.597,12.295Z" style="fill:#fff;"/><path d="M1339.16,3125.66l-6.147,0.298l-0.298,-6.147l6.147,-0.299l0.298,6.148Z" style="fill:#fff;"/><path d="M1024.75,3122.44l-6.147,0.298l-0.299,-6.147l6.148,-0.299l0.298,6.148Z" style="fill:#fff;"/><path d="M1177.6,2843.9l-6.147,0.298l-0.299,-6.147l6.148,-0.299l0.298,6.148Z" style="fill:#fff;"/><path d="M1252.14,2729.36l-6.147,0.298l-0.298,-6.147l6.147,-0.299l0.298,6.148Z" style="fill:#fff;"/><path d="M1135.22,2605.64l-6.148,0.299l-0.298,-6.148l6.147,-0.298l0.299,6.147Z" style="fill:#fff;"/><path d="M1423.56,2579.32l-6.147,0.298l-0.299,-6.147l6.148,-0.299l0.298,6.148Z" style="fill:#fff;"/><path d="M1257.22,3468.54l-6.147,0.298l-0.299,-6.147l6.148,-0.298l0.298,6.147Z" style="fill:#fff;"/><path d="M1803.03,3288l-12.295,0.597l-0.597,-12.295l12.295,-0.597l0.597,12.295Z" style="fill:#fff;"/><path d="M1449.64,3243.54l-6.147,0.299l-0.299,-6.148l6.148,-0.298l0.298,6.147Z" style="fill:#fff;"/><path d="M1933.32,3306.32l-6.147,0.298l-0.299,-6.147l6.148,-0.299l0.298,6.148Z" style="fill:#fff;"/><path d="M2016.22,3363.92l-6.147,0.299l-0.299,-6.148l6.147,-0.298l0.299,6.147Z" style="fill:#fff;"/><path d="M1875.18,3124.29l-6.148,0.298l-0.298,-6.147l6.147,-0.298l0.299,6.147Z" style="fill:#fff;"/><path d="M1723.05,2909.84l-6.148,0.299l-0.298,-6.148l6.147,-0.298l0.299,6.147Z" style="fill:#fff;"/><path d="M2117.5,3038.58l-18.442,0.896l-0.896,-18.442l18.443,-0.896l0.895,18.442Z" style="fill:#fff;"/><path d="M2172.94,2530.61l-12.295,0.597l-0.597,-12.295l12.295,-0.597l0.597,12.295Z" style="fill:#fff;"/><path d="M1641.28,2494.8l-6.148,0.298l-0.298,-6.147l6.147,-0.298l0.299,6.147Z" style="fill:#fff;"/><path d="M2111.35,2404.2l-6.147,0.298l-0.299,-6.147l6.148,-0.299l0.298,6.148Z" style="fill:#fff;"/><path d="M1777.78,2260.19l-6.147,0.299l-0.299,-6.148l6.148,-0.298l0.298,6.147Z" style="fill:#fff;"/><path d="M1165.9,2222.11l-12.295,0.597l-0.597,-12.295l12.295,-0.597l0.597,12.295Z" style="fill:#fff;"/><path d="M846.056,2360.88l-6.147,0.298l-0.299,-6.147l6.148,-0.299l0.298,6.148Z" style="fill:#fff;"/><path d="M1524.36,2371.08l-6.147,0.299l-0.299,-6.148l6.148,-0.298l0.298,6.147Z" style="fill:#fff;"/></g><g><path d="M1650.9,3685.36l-0.762,12.286l-12.286,-0.762l0.762,-12.286l12.286,0.762Z" style="fill:#fff;"/><path d="M1804.18,3898.37l-0.382,6.143l-6.142,-0.382l0.381,-6.142l6.143,0.381Z" style="fill:#fff;"/><path d="M1766.31,4210.51l-0.381,6.142l-6.143,-0.381l0.381,-6.143l6.143,0.382Z" style="fill:#fff;"/><path d="M1506.31,4027.88l-0.381,6.143l-6.143,-0.381l0.381,-6.143l6.143,0.381Z" style="fill:#fff;"/><path d="M1400.7,3941.16l-0.381,6.143l-6.143,-0.381l0.382,-6.143l6.142,0.381Z" style="fill:#fff;"/><path d="M1264.84,4043.73l-0.382,6.143l-6.142,-0.381l0.381,-6.143l6.143,0.381Z" style="fill:#fff;"/><path d="M1270.47,3754.25l-0.381,6.143l-6.143,-0.382l0.382,-6.142l6.142,0.381Z" style="fill:#fff;"/><path d="M2135.93,4017.62l-0.381,6.143l-6.143,-0.381l0.382,-6.143l6.142,0.381Z" style="fill:#fff;"/><path d="M2016.67,3455.23l-0.762,12.286l-12.286,-0.762l0.762,-12.286l12.286,0.762Z" style="fill:#fff;"/><path d="M1933.51,3801.56l-0.381,6.143l-6.143,-0.381l0.381,-6.143l6.143,0.381Z" style="fill:#fff;"/><path d="M2049.24,3327.76l-0.381,6.143l-6.143,-0.382l0.381,-6.142l6.143,0.381Z" style="fill:#fff;"/><path d="M2115.63,3251.71l-0.381,6.143l-6.143,-0.382l0.381,-6.142l6.143,0.381Z" style="fill:#fff;"/><path d="M1861.91,3365.47l-0.382,6.143l-6.142,-0.381l0.381,-6.143l6.143,0.381Z" style="fill:#fff;"/><path d="M1632,3493.03l-0.381,6.142l-6.143,-0.381l0.382,-6.143l6.142,0.382Z" style="fill:#fff;"/><path d="M1803.44,3115.18l-1.144,18.429l-18.428,-1.144l1.143,-18.428l18.429,1.143Z" style="fill:#fff;"/><path d="M1304.69,3004.06l-0.762,12.285l-12.286,-0.762l0.762,-12.286l12.286,0.763Z" style="fill:#fff;"/><path d="M1210.48,3528.54l-0.381,6.142l-6.143,-0.381l0.381,-6.143l6.143,0.382Z" style="fill:#fff;"/><path d="M1172.26,3051.34l-0.381,6.143l-6.143,-0.381l0.381,-6.143l6.143,0.381Z" style="fill:#fff;"/><path d="M992.34,3367l-0.382,6.143l-6.142,-0.381l0.381,-6.143l6.143,0.381Z" style="fill:#fff;"/><path d="M887.031,3970.95l-0.762,12.286l-12.286,-0.762l0.763,-12.286l12.285,0.762Z" style="fill:#fff;"/><path d="M989.685,4304.15l-0.381,6.143l-6.143,-0.381l0.382,-6.143l6.142,0.381Z" style="fill:#fff;"/><path d="M1074.62,3631.1l-0.381,6.143l-6.143,-0.382l0.381,-6.142l6.143,0.381Z" style="fill:#fff;"/></g><g><path d="M1438.75,4345.13l-8.8,-8.608l8.608,-8.799l8.799,8.608l-8.607,8.799Z" style="fill:#fff;"/><path d="M1177.36,4321.89l-4.4,-4.304l4.304,-4.4l4.4,4.304l-4.304,4.4Z" style="fill:#fff;"/><path d="M965.894,4089.19l-4.4,-4.303l4.304,-4.4l4.399,4.304l-4.303,4.399Z" style="fill:#fff;"/><path d="M1274.05,4011.81l-4.4,-4.304l4.304,-4.399l4.4,4.304l-4.304,4.399Z" style="fill:#fff;"/><path d="M1408.72,3988.57l-4.4,-4.304l4.304,-4.4l4.399,4.304l-4.303,4.4Z" style="fill:#fff;"/><path d="M1419.91,3818.71l-4.399,-4.304l4.304,-4.4l4.399,4.304l-4.304,4.4Z" style="fill:#fff;"/><path d="M1635.3,4012.2l-4.399,-4.303l4.304,-4.4l4.399,4.304l-4.304,4.399Z" style="fill:#fff;"/><path d="M870.249,4495l-4.399,-4.304l4.304,-4.4l4.399,4.304l-4.304,4.4Z" style="fill:#fff;"/><path d="M1373.81,4772.36l-8.799,-8.608l8.608,-8.799l8.799,8.608l-8.608,8.799Z" style="fill:#fff;"/><path d="M1166.07,4483.04l-4.399,-4.304l4.304,-4.399l4.399,4.303l-4.304,4.4Z" style="fill:#fff;"/><path d="M1448.98,4880.34l-4.4,-4.304l4.304,-4.399l4.4,4.303l-4.304,4.4Z" style="fill:#fff;"/><path d="M1463.13,4980.29l-4.399,-4.304l4.304,-4.399l4.399,4.304l-4.304,4.399Z" style="fill:#fff;"/><path d="M1542.9,4713.93l-4.399,-4.304l4.304,-4.4l4.399,4.304l-4.304,4.4Z" style="fill:#fff;"/><path d="M1596.65,4456.55l-4.4,-4.304l4.304,-4.399l4.4,4.304l-4.304,4.399Z" style="fill:#fff;"/><path d="M1770.53,4833.29l-13.199,-12.911l12.912,-13.199l13.199,12.912l-12.912,13.198Z" style="fill:#fff;"/><path d="M2180.65,4528.48l-8.799,-8.608l8.608,-8.799l8.799,8.608l-8.608,8.799Z" style="fill:#fff;"/><path d="M1845.33,4114.35l-4.4,-4.304l4.304,-4.4l4.4,4.304l-4.304,4.4Z" style="fill:#fff;"/><path d="M2231.43,4397.35l-4.4,-4.304l4.304,-4.399l4.4,4.304l-4.304,4.399Z" style="fill:#fff;"/><path d="M2110.16,4054.86l-4.4,-4.304l4.304,-4.399l4.4,4.304l-4.304,4.399Z" style="fill:#fff;"/><path d="M1721.95,3580.37l-8.799,-8.608l8.608,-8.799l8.799,8.608l-8.608,8.799Z" style="fill:#fff;"/><path d="M1402.7,3440.26l-4.4,-4.304l4.304,-4.4l4.4,4.304l-4.304,4.4Z" style="fill:#fff;"/><path d="M1856.52,3944.49l-4.4,-4.304l4.304,-4.4l4.4,4.304l-4.304,4.4Z" style="fill:#fff;"/></g><g><path d="M475.78,2968.94l-2.264,-12.1l-12.099,2.264l2.264,12.099l12.099,-2.263Z" style="fill:#fff;"/><path d="M601.774,2738.74l-1.132,-6.05l-6.05,1.132l1.132,6.05l6.05,-1.132Z" style="fill:#fff;"/><path d="M525.905,2433.6l-1.132,-6.05l-6.05,1.132l1.132,6.05l6.05,-1.132Z" style="fill:#fff;"/><path d="M290.276,2646.74l-1.132,-6.05l-6.05,1.132l1.132,6.05l6.05,-1.132Z" style="fill:#fff;"/><path d="M196.094,2745.76l-1.132,-6.05l-6.049,1.132l1.131,6.05l6.05,-1.132Z" style="fill:#fff;"/><path d="M48.679,2660.63l-1.132,-6.049l-6.05,1.131l1.132,6.05l6.05,-1.132Z" style="fill:#fff;"/><path d="M89.772,2947.23l-1.132,-6.05l-6.049,1.132l1.131,6.049l6.05,-1.131Z" style="fill:#fff;"/><path d="M916.399,2579.7l-1.132,-6.05l-6.05,1.132l1.132,6.05l6.05,-1.132Z" style="fill:#fff;"/><path d="M867.015,3152.47l-2.264,-12.1l-12.099,2.264l2.263,12.099l12.1,-2.263Z" style="fill:#fff;"/><path d="M742.007,2818.95l-1.131,-6.05l-6.05,1.132l1.132,6.049l6.049,-1.131Z" style="fill:#fff;"/><path d="M914.981,3274.98l-1.132,-6.049l-6.05,1.131l1.132,6.05l6.05,-1.132Z" style="fill:#fff;"/><path d="M990.19,3342.31l-1.131,-6.05l-6.05,1.132l1.132,6.05l6.049,-1.132Z" style="fill:#fff;"/><path d="M724.436,3260.54l-1.132,-6.05l-6.05,1.132l1.132,6.049l6.05,-1.131Z" style="fill:#fff;"/><path d="M480.616,3162.14l-1.132,-6.05l-6.049,1.132l1.131,6.05l6.05,-1.132Z" style="fill:#fff;"/><path d="M697.11,3516.11l-3.396,-18.15l-18.149,3.396l3.396,18.149l18.149,-3.395Z" style="fill:#fff;"/><path d="M215.748,3687.56l-2.264,-12.099l-12.099,2.263l2.263,12.099l12.1,-2.263Z" style="fill:#fff;"/><path d="M57.919,3178.6l-1.132,-6.05l-6.049,1.132l1.131,6.05l6.05,-1.132Z" style="fill:#fff;"/><path d="M78.518,3656.88l-1.132,-6.05l-6.049,1.132l1.131,6.049l6.05,-1.131Z" style="fill:#fff;"/></g><g><path d="M475.871,2217.26l-2.208,12.11l-12.11,-2.208l2.208,-12.11l12.11,2.208Z" style="fill:#fff;"/><path d="M602.918,2446.88l-1.105,6.055l-6.054,-1.104l1.104,-6.055l6.055,1.104Z" style="fill:#fff;"/><path d="M528.447,2752.36l-1.104,6.054l-6.055,-1.104l1.104,-6.054l6.055,1.104Z" style="fill:#fff;"/><path d="M291.844,2540.3l-1.104,6.054l-6.055,-1.104l1.104,-6.055l6.055,1.105Z" style="fill:#fff;"/><path d="M197.21,2441.72l-1.104,6.055l-6.055,-1.104l1.104,-6.055l6.055,1.104Z" style="fill:#fff;"/><path d="M50.186,2527.52l-1.104,6.055l-6.055,-1.104l1.104,-6.055l6.055,1.104Z" style="fill:#fff;"/><path d="M89.967,2240.74l-1.104,6.055l-6.055,-1.104l1.104,-6.055l6.055,1.104Z" style="fill:#fff;"/><path d="M918.268,2604.48l-1.104,6.055l-6.055,-1.105l1.104,-6.054l6.055,1.104Z" style="fill:#fff;"/><path d="M866.261,2031.94l-2.208,12.11l-12.109,-2.208l2.208,-12.11l12.109,2.208Z" style="fill:#fff;"/><path d="M742.783,2366.03l-1.104,6.055l-6.055,-1.104l1.104,-6.055l6.055,1.104Z" style="fill:#fff;"/><path d="M913.666,1909.21l-1.104,6.055l-6.055,-1.104l1.104,-6.055l6.055,1.104Z" style="fill:#fff;"/><path d="M988.566,1841.54l-1.104,6.055l-6.055,-1.104l1.105,-6.055l6.054,1.104Z" style="fill:#fff;"/><path d="M723.189,1924.53l-1.104,6.055l-6.055,-1.104l1.104,-6.055l6.055,1.104Z" style="fill:#fff;"/><path d="M479.822,2024.04l-1.104,6.054l-6.054,-1.104l1.104,-6.055l6.054,1.105Z" style="fill:#fff;"/><path d="M694.693,1669.09l-3.312,18.165l-18.165,-3.312l3.312,-18.165l18.165,3.312Z" style="fill:#fff;"/><path d="M212.551,1499.84l-2.208,12.11l-12.11,-2.209l2.208,-12.109l12.11,2.208Z" style="fill:#fff;"/><path d="M57.055,2009.52l-1.105,6.054l-6.054,-1.104l1.104,-6.055l6.055,1.105Z" style="fill:#fff;"/><path d="M75.463,1531.15l-1.104,6.055l-6.055,-1.104l1.104,-6.055l6.055,1.104Z" style="fill:#fff;"/></g><g><path d="M342.004,1410.16l12.294,-0.597l0.597,12.295l-12.295,0.597l-0.596,-12.295Z" style="fill:#fff;"/><path d="M536.81,1234.33l6.148,-0.299l0.298,6.148l-6.147,0.298l-0.299,-6.147Z" style="fill:#fff;"/><path d="M851.223,1237.55l6.148,-0.298l0.298,6.147l-6.147,0.299l-0.299,-6.148Z" style="fill:#fff;"/><path d="M698.375,1516.1l6.147,-0.298l0.299,6.147l-6.148,0.299l-0.298,-6.148Z" style="fill:#fff;"/><path d="M623.83,1630.63l6.148,-0.298l0.298,6.147l-6.147,0.299l-0.299,-6.148Z" style="fill:#fff;"/><path d="M740.751,1754.35l6.147,-0.298l0.299,6.147l-6.148,0.298l-0.298,-6.147Z" style="fill:#fff;"/><path d="M452.42,1780.67l6.147,-0.298l0.298,6.147l-6.147,0.299l-0.298,-6.148Z" style="fill:#fff;"/><path d="M618.755,891.447l6.147,-0.298l0.298,6.147l-6.147,0.298l-0.298,-6.147Z" style="fill:#fff;"/><path d="M72.949,1071.99l12.295,-0.597l0.597,12.295l-12.295,0.597l-0.597,-12.295Z" style="fill:#fff;"/><path d="M426.335,1116.45l6.148,-0.299l0.298,6.148l-6.147,0.298l-0.299,-6.147Z" style="fill:#fff;"/><path d="M0.792,1235.7l6.147,-0.298l0.299,6.147l-6.148,0.299l-0.298,-6.148Z" style="fill:#fff;"/><path d="M152.926,1450.15l6.148,-0.299l0.298,6.148l-6.147,0.298l-0.299,-6.147Z" style="fill:#fff;"/><path d="M234.694,1865.19l6.148,-0.298l0.298,6.147l-6.147,0.299l-0.299,-6.148Z" style="fill:#fff;"/><path d="M98.199,2099.8l6.147,-0.299l0.298,6.148l-6.147,0.298l-0.298,-6.147Z" style="fill:#fff;"/><path d="M710.075,2137.88l12.295,-0.597l0.597,12.295l-12.295,0.597l-0.597,-12.295Z" style="fill:#fff;"/><path d="M1029.92,1999.11l6.147,-0.298l0.299,6.147l-6.148,0.299l-0.298,-6.148Z" style="fill:#fff;"/><path d="M351.615,1988.91l6.147,-0.299l0.299,6.148l-6.148,0.298l-0.298,-6.147Z" style="fill:#fff;"/></g><g><path d="M414.42,5187.1l10.5,-6.424l-6.425,-10.5l-10.499,6.424l6.424,10.5Z" style="fill:#fff;"/><path d="M674.396,5222.84l5.25,-3.212l-3.212,-5.25l-5.25,3.212l3.212,5.25Z" style="fill:#fff;"/><path d="M932.505,5043.27l5.25,-3.212l-3.212,-5.25l-5.25,3.213l3.212,5.249Z" style="fill:#fff;"/><path d="M649.422,4899.01l5.25,-3.212l-3.213,-5.25l-5.249,3.212l3.212,5.25Z" style="fill:#fff;"/><path d="M523.354,4846.27l5.25,-3.213l-3.213,-5.249l-5.25,3.212l3.213,5.25Z" style="fill:#fff;"/><path d="M550.396,4678.2l5.25,-3.212l-3.212,-5.25l-5.25,3.212l3.212,5.25Z" style="fill:#fff;"/><path d="M297.226,4818.67l5.25,-3.213l-3.212,-5.249l-5.25,3.212l3.212,5.25Z" style="fill:#fff;"/><path d="M935.064,5460.19l5.25,-3.212l-3.212,-5.25l-5.25,3.212l3.212,5.25Z" style="fill:#fff;"/><path d="M382.267,5618.04l10.5,-6.425l-6.424,-10.5l-10.5,6.425l6.424,10.5Z" style="fill:#fff;"/><path d="M649.391,5382.45l5.25,-3.212l-3.212,-5.25l-5.25,3.213l3.212,5.249Z" style="fill:#fff;"/><path d="M284.868,5706.5l5.25,-3.212l-3.212,-5.25l-5.25,3.212l3.212,5.25Z" style="fill:#fff;"/><path d="M248.741,5800.76l5.25,-3.212l-3.213,-5.25l-5.25,3.213l3.213,5.249Z" style="fill:#fff;"/><path d="M230.502,5523.3l5.25,-3.212l-3.212,-5.25l-5.25,3.212l3.212,5.25Z" style="fill:#fff;"/><path d="M235.612,5260.43l5.25,-3.212l-3.213,-5.25l-5.25,3.212l3.213,5.25Z" style="fill:#fff;"/><path d="M69.683,4871.31l5.25,-3.212l-3.212,-5.25l-5.25,3.212l3.212,5.25Z" style="fill:#fff;"/><path d="M309.242,4378.4l10.5,-6.425l-6.424,-10.499l-10.5,6.424l6.424,10.5Z" style="fill:#fff;"/><path d="M651.731,4313.15l5.25,-3.212l-3.212,-5.25l-5.25,3.212l3.212,5.25Z" style="fill:#fff;"/><path d="M96.726,4703.24l5.25,-3.213l-3.213,-5.25l-5.249,3.213l3.212,5.25Z" style="fill:#fff;"/></g><g><path d="M225.077,674.63l0.762,-12.286l12.286,0.763l-0.763,12.285l-12.285,-0.762Z" style="fill:#fff;"/><path d="M71.799,461.624l0.381,-6.142l6.143,0.381l-0.381,6.143l-6.143,-0.382Z" style="fill:#fff;"/><path d="M109.668,149.483l0.381,-6.142l6.143,0.381l-0.381,6.143l-6.143,-0.382Z" style="fill:#fff;"/><path d="M369.661,332.112l0.381,-6.143l6.143,0.381l-0.382,6.143l-6.142,-0.381Z" style="fill:#fff;"/><path d="M475.276,418.83l0.381,-6.143l6.143,0.381l-0.381,6.143l-6.143,-0.381Z" style="fill:#fff;"/><path d="M611.137,316.264l0.381,-6.143l6.143,0.381l-0.381,6.143l-6.143,-0.381Z" style="fill:#fff;"/><path d="M605.507,605.739l0.381,-6.142l6.143,0.381l-0.381,6.143l-6.143,-0.382Z" style="fill:#fff;"/><path d="M14.065,994.526l0.381,-6.143l6.143,0.382l-0.381,6.142l-6.143,-0.381Z" style="fill:#fff;"/><path d="M243.974,866.964l0.381,-6.143l6.143,0.381l-0.381,6.143l-6.143,-0.381Z" style="fill:#fff;"/><path d="M72.532,1244.81l1.143,-18.429l18.429,1.144l-1.144,18.428l-18.428,-1.143Z" style="fill:#fff;"/><path d="M571.289,1355.93l0.762,-12.285l12.286,0.762l-0.763,12.286l-12.285,-0.763Z" style="fill:#fff;"/><path d="M665.499,831.456l0.381,-6.143l6.143,0.381l-0.382,6.143l-6.142,-0.381Z" style="fill:#fff;"/><path d="M703.719,1308.65l0.381,-6.143l6.143,0.381l-0.381,6.143l-6.143,-0.381Z" style="fill:#fff;"/><path d="M883.635,992.987l0.381,-6.143l6.143,0.382l-0.381,6.142l-6.143,-0.381Z" style="fill:#fff;"/><path d="M988.943,389.04l0.763,-12.286l12.285,0.762l-0.762,12.286l-12.286,-0.762Z" style="fill:#fff;"/><path d="M886.289,55.846l0.381,-6.143l6.143,0.381l-0.381,6.143l-6.143,-0.381Z" style="fill:#fff;"/><path d="M801.359,728.889l0.382,-6.142l6.142,0.381l-0.381,6.143l-6.143,-0.382Z" style="fill:#fff;"/></g><g><path d="M467.256,4.408l4.4,4.304l-4.304,4.4l-4.4,-4.304l4.304,-4.4Z" style="fill:#fff;"/><path d="M456.065,174.269l4.4,4.304l-4.304,4.4l-4.4,-4.304l4.304,-4.4Z" style="fill:#fff;"/><path d="M154.025,412.609l8.799,8.608l-8.608,8.799l-8.799,-8.608l8.608,-8.799Z" style="fill:#fff;"/><path d="M473.279,552.727l4.4,4.303l-4.304,4.4l-4.4,-4.304l4.304,-4.399Z" style="fill:#fff;"/><path d="M19.458,48.497l4.4,4.304l-4.304,4.4l-4.4,-4.304l4.304,-4.4Z" style="fill:#fff;"/></g><g><path d="M7469.54,266.727l-7.354,9.871l9.871,7.354l7.354,-9.871l-9.871,-7.354Z" style="fill:#fff;"/><path d="M7214.94,330.319l-3.677,4.936l4.935,3.677l3.677,-4.936l-4.935,-3.677Z" style="fill:#fff;"/><path d="M7042.22,593.062l-3.677,4.935l4.936,3.677l3.677,-4.935l-4.936,-3.677Z" style="fill:#fff;"/><path d="M7358.66,621.591l-3.677,4.936l4.936,3.677l3.677,-4.936l-4.936,-3.677Z" style="fill:#fff;"/><path d="M7495.31,623.616l-3.677,4.935l4.936,3.677l3.677,-4.935l-4.936,-3.677Z" style="fill:#fff;"/><path d="M7532.77,789.672l-3.677,4.935l4.936,3.677l3.677,-4.935l-4.936,-3.677Z" style="fill:#fff;"/><path d="M7715.46,565.057l-3.677,4.935l4.935,3.677l3.677,-4.935l-4.935,-3.677Z" style="fill:#fff;"/><path d="M6884.66,207.052l-3.677,4.936l4.936,3.677l3.677,-4.936l-4.936,-3.677Z" style="fill:#fff;"/><path d="M7178.74,172.876l-3.677,4.935l4.935,3.677l3.677,-4.935l-4.935,-3.677Z" style="fill:#fff;"/><path d="M7608.21,132.111l-3.677,4.935l4.935,3.677l3.677,-4.935l-4.935,-3.677Z" style="fill:#fff;"/><path d="M7907.05,431.502l-3.677,4.936l4.935,3.677l3.677,-4.936l-4.935,-3.677Z" style="fill:#fff;"/><path d="M8177.92,449.099l-3.677,4.936l4.936,3.677l3.677,-4.936l-4.936,-3.677Z" style="fill:#fff;"/><path d="M7868.18,978.162l-7.354,9.871l9.871,7.354l7.354,-9.871l-9.871,-7.354Z" style="fill:#fff;"/><path d="M7574.59,1166.2l-3.677,4.936l4.935,3.677l3.677,-4.936l-4.935,-3.677Z" style="fill:#fff;"/><path d="M7944.51,597.559l-3.677,4.935l4.935,3.677l3.677,-4.935l-4.935,-3.677Z" style="fill:#fff;"/></g><g><path d="M6917.22,776.584l10.395,-6.593l6.593,10.395l-10.395,6.593l-6.593,-10.395Z" style="fill:#fff;"/><path d="M6999.73,527.473l5.198,-3.297l3.296,5.198l-5.198,3.296l-3.296,-5.197Z" style="fill:#fff;"/><path d="M7274.69,374.953l5.198,-3.296l3.296,5.197l-5.197,3.296l-3.297,-5.197Z" style="fill:#fff;"/><path d="M7279.4,692.643l5.197,-3.296l3.297,5.198l-5.198,3.296l-3.296,-5.198Z" style="fill:#fff;"/><path d="M7271.17,829.051l5.198,-3.297l3.296,5.198l-5.197,3.296l-3.297,-5.197Z" style="fill:#fff;"/><path d="M7433.94,878.864l5.197,-3.296l3.297,5.197l-5.198,3.297l-3.296,-5.198Z" style="fill:#fff;"/><path d="M7196.26,1044.19l5.198,-3.296l3.296,5.197l-5.197,3.297l-3.297,-5.198Z" style="fill:#fff;"/><path d="M6901.6,188.869l5.198,-3.296l3.296,5.197l-5.197,3.297l-3.297,-5.198Z" style="fill:#fff;"/><path d="M6516.23,615.475l10.395,-6.592l6.592,10.395l-10.395,6.592l-6.592,-10.395Z" style="fill:#fff;"/><path d="M6845.45,479.56l5.198,-3.296l3.296,5.197l-5.197,3.297l-3.297,-5.198Z" style="fill:#fff;"/><path d="M6393.9,663.908l5.197,-3.296l3.297,5.197l-5.198,3.297l-3.296,-5.198Z" style="fill:#fff;"/><path d="M6293.37,654.785l5.198,-3.296l3.296,5.198l-5.197,3.296l-3.297,-5.198Z" style="fill:#fff;"/><path d="M6534.37,793.463l5.197,-3.297l3.296,5.198l-5.197,3.296l-3.296,-5.197Z" style="fill:#fff;"/><path d="M6772.58,904.757l5.198,-3.296l3.296,5.197l-5.197,3.297l-3.297,-5.198Z" style="fill:#fff;"/><path d="M6366.02,987.685l15.593,-9.889l9.889,15.593l-15.593,9.889l-9.889,-15.593Z" style="fill:#fff;"/><path d="M6568.75,1456.73l10.395,-6.592l6.593,10.395l-10.395,6.592l-6.593,-10.395Z" style="fill:#fff;"/><path d="M7048.7,1225.22l5.198,-3.297l3.296,5.198l-5.198,3.296l-3.296,-5.197Z" style="fill:#fff;"/><path d="M6684.75,1536.21l5.198,-3.297l3.296,5.198l-5.197,3.296l-3.297,-5.197Z" style="fill:#fff;"/><path d="M7045.93,1496.64l5.198,-3.297l3.296,5.198l-5.198,3.296l-3.296,-5.197Z" style="fill:#fff;"/><path d="M7596.74,1227.48l10.395,-6.593l6.592,10.395l-10.395,6.593l-6.592,-10.395Z" style="fill:#fff;"/><path d="M7806.28,948.825l5.197,-3.297l3.297,5.198l-5.198,3.296l-3.296,-5.197Z" style="fill:#fff;"/><path d="M7211.48,1275.04l5.197,-3.296l3.297,5.198l-5.198,3.296l-3.296,-5.198Z" style="fill:#fff;"/></g><g><path d="M7956.82,342.397l9.044,-8.351l8.35,9.044l-9.043,8.35l-8.351,-9.043Z" style="fill:#fff;"/><path d="M8085.2,399.779l4.522,-4.175l4.175,4.522l-4.522,4.175l-4.175,-4.522Z" style="fill:#fff;"/></g></g></svg>