<?xml version="1.0" encoding="UTF-8" standalone="no"?>
<!DOCTYPE svg PUBLIC "-//W3C//DTD SVG 1.1//EN" "http://www.w3.org/Graphics/SVG/1.1/DTD/svg11.dtd">
<svg width="100%" height="100%" viewBox="0 0 321 321" version="1.1" xmlns="http://www.w3.org/2000/svg" xmlns:xlink="http://www.w3.org/1999/xlink" xml:space="preserve" xmlns:serif="http://www.serif.com/" style="fill-rule:evenodd;clip-rule:evenodd;stroke-linecap:round;stroke-miterlimit:1.5;">
    <g transform="matrix(1,0,0,1,-2570.63,-162.238)">
        <g id="Artboard3" transform="matrix(0.466014,0,0,0.392024,1449.26,162.238)">
            <rect x="2406.31" y="0" width="686.837" height="818.116" style="fill:none;"/>
            <clipPath id="_clip1">
                <rect x="2406.31" y="0" width="686.837" height="818.116"/>
            </clipPath>
            <g clip-path="url(#_clip1)">
                <g id="background-2" transform="matrix(0.782541,2.3752,-1.99808,0.930236,1378.92,-6307.96)">
                    <g transform="matrix(1,0,0,1,-47.3931,43.4428)">
                        <path d="M2731.91,166.675C2731.91,166.675 2711.87,182.371 2701.86,212.501C2691.84,242.631 2691.84,282.631 2731.91,322.112C2732.34,322.365 2812.43,257.939 2731.91,166.675Z"/>
                    </g>
                    <g transform="matrix(5.55112e-17,1,-1,5.55112e-17,3006.76,-2366.49)">
                        <path d="M2731.91,166.675C2731.91,166.675 2711.87,182.371 2701.86,212.501C2691.84,242.631 2691.84,282.631 2731.91,322.112C2732.34,322.365 2812.43,257.939 2731.91,166.675Z"/>
                    </g>
                    <g transform="matrix(-1,1.11022e-16,-1.11022e-16,-1,5416.69,687.669)">
                        <path d="M2731.91,166.675C2731.91,166.675 2711.87,182.371 2701.86,212.501C2691.84,242.631 2691.84,282.631 2731.91,322.112C2732.34,322.365 2812.43,257.939 2731.91,166.675Z"/>
                    </g>
                    <g transform="matrix(6.93889e-17,-1,1,6.93889e-17,2362.53,3097.6)">
                        <path d="M2731.91,166.675C2731.91,166.675 2711.87,182.371 2701.86,212.501C2691.84,242.631 2691.84,282.631 2731.91,322.112C2732.34,322.365 2812.43,257.939 2731.91,166.675Z"/>
                    </g>
                </g>
                <g id="background-1" transform="matrix(-0.856779,2.33871,-1.96739,-1.01848,5768.7,-5497.65)">
                    <g transform="matrix(1,0,0,1,-47.3931,43.4428)">
                        <path d="M2731.91,166.675C2731.91,166.675 2711.87,182.371 2701.86,212.501C2691.84,242.631 2691.84,282.631 2731.91,322.112C2732.34,322.365 2812.43,257.939 2731.91,166.675Z"/>
                    </g>
                    <g transform="matrix(5.55112e-17,1,-1,5.55112e-17,3006.76,-2366.49)">
                        <path d="M2731.91,166.675C2731.91,166.675 2711.87,182.371 2701.86,212.501C2691.84,242.631 2691.84,282.631 2731.91,322.112C2732.34,322.365 2812.43,257.939 2731.91,166.675Z"/>
                    </g>
                    <g transform="matrix(-1,1.11022e-16,-1.11022e-16,-1,5416.69,687.669)">
                        <path d="M2731.91,166.675C2731.91,166.675 2711.87,182.371 2701.86,212.501C2691.84,242.631 2691.84,282.631 2731.91,322.112C2732.34,322.365 2812.43,257.939 2731.91,166.675Z"/>
                    </g>
                    <g transform="matrix(6.93889e-17,-1,1,6.93889e-17,2362.53,3097.6)">
                        <path d="M2731.91,166.675C2731.91,166.675 2711.87,182.371 2701.86,212.501C2691.84,242.631 2691.84,282.631 2731.91,322.112C2732.34,322.365 2812.43,257.939 2731.91,166.675Z"/>
                    </g>
                </g>
                <g id="foreground-2" transform="matrix(1.50866,1.814,-1.52599,1.7934,-881.296,-5125.5)">
                    <g transform="matrix(1,0,0,1,0.307758,0)">
                        <path d="M2731.91,166.675C2731.91,166.675 2711.87,182.371 2701.86,212.501C2691.84,242.631 2691.84,282.631 2731.91,322.112C2732.34,322.365 2812.43,257.939 2731.91,166.675Z" style="fill:white;stroke:black;stroke-width:6px;"/>
                    </g>
                    <g transform="matrix(5.55112e-17,1,-1,5.55112e-17,3054.46,-2409.93)">
                        <path d="M2731.91,166.675C2731.91,166.675 2711.87,182.371 2701.86,212.501C2691.84,242.631 2691.84,282.631 2731.91,322.112C2732.34,322.365 2812.43,257.939 2731.91,166.675Z" style="fill:white;stroke:black;stroke-width:6px;"/>
                    </g>
                    <g transform="matrix(-1,1.11022e-16,-1.11022e-16,-1,5464.39,644.226)">
                        <path d="M2731.91,166.675C2731.91,166.675 2711.87,182.371 2701.86,212.501C2691.84,242.631 2691.84,282.631 2731.91,322.112C2732.34,322.365 2812.43,257.939 2731.91,166.675Z" style="fill:white;stroke:black;stroke-width:6px;"/>
                    </g>
                    <g transform="matrix(6.93889e-17,-1,1,6.93889e-17,2410.24,3054.15)">
                        <path d="M2731.91,166.675C2731.91,166.675 2711.87,182.371 2701.86,212.501C2691.84,242.631 2691.84,282.631 2731.91,322.112C2732.34,322.365 2812.43,257.939 2731.91,166.675Z" style="fill:white;stroke:black;stroke-width:6px;"/>
                    </g>
                </g>
                <g id="foreground" transform="matrix(2.14586,0,0,2.55086,-3113.6,-413.003)">
                    <g transform="matrix(1,0,0,1,0.307758,0)">
                        <path d="M2731.91,166.675C2731.91,166.675 2711.87,182.371 2701.86,212.501C2691.84,242.631 2691.84,282.631 2731.91,322.112C2732.34,322.365 2812.43,257.939 2731.91,166.675Z" style="fill:white;stroke:black;stroke-width:6px;"/>
                    </g>
                    <g transform="matrix(5.55112e-17,1,-1,5.55112e-17,3054.46,-2409.93)">
                        <path d="M2731.91,166.675C2731.91,166.675 2711.87,182.371 2701.86,212.501C2691.84,242.631 2691.84,282.631 2731.91,322.112C2732.34,322.365 2812.43,257.939 2731.91,166.675Z" style="fill:white;stroke:black;stroke-width:6px;"/>
                    </g>
                    <g transform="matrix(-1,1.11022e-16,-1.11022e-16,-1,5464.39,644.226)">
                        <path d="M2731.91,166.675C2731.91,166.675 2711.87,182.371 2701.86,212.501C2691.84,242.631 2691.84,282.631 2731.91,322.112C2732.34,322.365 2812.43,257.939 2731.91,166.675Z" style="fill:white;stroke:black;stroke-width:6px;"/>
                    </g>
                    <g transform="matrix(6.93889e-17,-1,1,6.93889e-17,2410.24,3054.15)">
                        <path d="M2731.91,166.675C2731.91,166.675 2711.87,182.371 2701.86,212.501C2691.84,242.631 2691.84,282.631 2731.91,322.112C2732.34,322.365 2812.43,257.939 2731.91,166.675Z" style="fill:white;stroke:black;stroke-width:6px;"/>
                    </g>
                </g>
            </g>
        </g>
    </g>
</svg>
