<svg id="Layer_1" enable-background="new 0 0 511.401 511.401" height="512" viewBox="0 0 511.401 511.401" width="512" xmlns="http://www.w3.org/2000/svg"><g><path d="m257.382 68.095c4.142 0 7.5-3.357 7.5-7.5v-42.588c0-9.386-15-9.813-15 0v42.589c0 4.142 3.358 7.499 7.5 7.499z"/><path d="m153.342 89.684c4.681 8.143 17.892 1.031 13.006-7.475l-21.195-36.883c-4.678-8.137-17.894-1.034-13.006 7.475z"/><path d="m47.519 142.092 36.711 21.294c8.112 4.708 16.018-8.049 7.526-12.975l-36.711-21.294c-8.118-4.711-16.015 8.051-7.526 12.975z"/><path d="m18.687 261.939h42.39c9.386 0 9.813-15 0-15h-42.39c-9.385 0-9.813 15 0 15z"/><path d="m442.823 257.819c0 4.143 3.358 7.5 7.5 7.5h42.39c9.386 0 9.813-15 0-15h-42.39c-4.142 0-7.5 3.357-7.5 7.5z"/><path d="m425.097 167.327c1.277 0 2.572-.326 3.756-1.014l36.711-21.294c8.119-4.709.961-17.901-7.526-12.975l-36.711 21.294c-6.369 3.694-3.594 13.989 3.77 13.989z"/><path d="m350.732 94.139c3.419 1.965 8.273.656 10.24-2.766l21.195-36.882c4.675-8.138-8.115-15.982-13.006-7.475l-21.195 36.882c-2.064 3.593-.825 8.177 2.766 10.241z"/><path d="m67.907 323.621c-9.386 0-9.813 15 0 15h375.838c9.386 0 9.813-15 0-15h-45.745c10.653-21.622 16.256-45.52 16.256-69.857 0-86.886-70.373-157.573-156.874-157.573-36.941 0-72.826 13.157-101.042 37.049-7.163 6.065 2.205 17.791 9.692 11.447 25.512-21.601 57.954-33.496 91.35-33.496 78.229 0 141.874 63.958 141.874 142.573 0 24.55-6.272 48.609-18.174 69.857h-247.399c-11.902-21.248-18.174-45.307-18.174-69.857 0-29.168 8.712-57.217 25.194-81.112 5.329-7.726-6.778-16.596-12.348-8.518-18.217 26.412-27.847 57.406-27.847 89.63 0 24.338 5.603 48.235 16.256 69.857z"/><path d="m504.2 386.649h-137.53c-9.386 0-9.813 15 0 15h137.53c9.386 0 9.813-15 0-15z"/><path d="m387.326 449.677h-65.306c7.533-11.787 11.506-24.193 11.677-36.834.083-6.143-.914-12.158-2.961-17.879-3.163-8.837-17.43-4.184-14.123 5.055 1.442 4.029 2.144 8.275 2.085 12.621-.254 18.837-11.142 36.812-32.358 53.425-12.512 9.797-25.173 16.233-30.673 18.818-5.543-2.553-18.319-8.927-30.895-18.692-21.281-16.524-32.072-34.508-32.072-53.449 0-18.443 13.149-33.448 29.313-33.448 11.479 0 21.966 7.728 26.716 19.687 2.455 6.183 11.485 6.183 13.94 0 4.811-12.115 16.794-21.258 30.219-19.438 9.302 1.252 11.735-13.549 2.011-14.865-15.073-2.036-29.915 4.701-39.2 16.568-8.282-10.585-20.509-16.951-33.687-16.951-15.651 0-29.422 8.925-37.307 22.355h-177.505c-9.386 0-9.813 15 0 15h171.685c-3.569 16.587 1.19 33.918 10.099 48.028h-64.909c-9.386 0-9.813 15 0 15h76.669c14.241 15.058 32.894 27.561 52.137 35.367 1.899.741 3.797.733 5.693-.023 19.063-7.908 37.445-20.398 51.613-35.344h77.14c9.385-.001 9.812-15.001-.001-15.001z"/></g></svg>