<svg height="512" viewBox="0 0 60 60" width="512" xmlns="http://www.w3.org/2000/svg" xml:space="preserve">
  <g id="Page-1" fill="none" fill-rule="evenodd">
    <g id="010---Cleaning-Products" fill="#ffffff" fill-rule="nonzero">
      <path id="Shape" d="M0 32v2a2.993 2.993 0 0 0 2.165 2.867l4.177 19.19A5 5 0 0 0 11.22 60h37.56a5 5 0 0 0 4.877-3.937l4.178-19.2A2.993 2.993 0 0 0 60 34v-2a3 3 0 0 0-3-3h-1.618A40.792 40.792 0 0 0 52 20.758V18a3 3 0 0 0-2-2.816V10.4l2.842-2.97.867.867a3.064 3.064 0 0 0 4.234 0l1.18-1.18a3 3 0 0 0 0-4.234l-2-2A2.978 2.978 0 0 0 55 0H35a2 2 0 0 0-2 2v3a2 2 0 0 0 2 2h1v3.5l-1.8 1.351a3 3 0 0 0 3.6 4.8l3.005-2.251A3.026 3.026 0 0 0 42 12V7.667l2 2.666v4.851A3 3 0 0 0 42 18v2.838l-.81 2.438A13.729 13.729 0 0 1 37.5 29H34v-6a8.987 8.987 0 0 0-2.635-6.37 9.247 9.247 0 0 0-1.416-1.149.972.972 0 0 0 .051-.253V6.667a1.67 1.67 0 0 0-.834-1.443 1.63 1.63 0 0 0-1.649 0 6.347 6.347 0 0 1-5.031 0c-.51-.3-1.142-.3-1.652 0A1.67 1.67 0 0 0 20 6.667v8.561c.005.09.023.179.053.264a9.067 9.067 0 0 0-1.546 1.293c-.049-.051-.091-.1-.142-.155a9.247 9.247 0 0 0-1.416-1.149.972.972 0 0 0 .051-.253V8A5 5 0 0 0 7 8v7.228c.005.09.023.178.053.262A8.993 8.993 0 0 0 3 23v6a3 3 0 0 0-3 3zm2 0a1 1 0 0 1 1-1h4v4H3a1 1 0 0 1-1-1zm15-8a1 1 0 0 1 1 1v16a1 1 0 0 1-1 1h-7a1 1 0 0 1-1-1V25a1 1 0 0 1 1-1zm-.681 28.867a1 1 0 0 1-.833 1.119 1.03 1.03 0 0 1-1.146-.852L13.086 44H15.1zM51.7 55.643A2.994 2.994 0 0 1 48.78 58H11.22a3 3 0 0 1-2.92-2.363L4.241 37H7v4a3 3 0 0 0 3 3h1.069l1.29 9.409A3.018 3.018 0 0 0 15.33 56a3.57 3.57 0 0 0 .4-.029 2.994 2.994 0 0 0 2.57-3.377l-1.185-8.606A3 3 0 0 0 20 41v-4h35.759zM58 34a1 1 0 0 1-1 1H20v-4h37a1 1 0 0 1 1 1zM46 11h2v4h-2zM35 2h3v3h-3zm4.6 10.8-3 2.25a1 1 0 0 1-1.2-1.6l2.2-1.65a1 1 0 0 0 .4-.8V7h2v5c-.002.314-.15.61-.4.8zM42 5h-2V2h15a1 1 0 0 1 .708.293l2 2a1 1 0 0 1 0 1.406l-1.18 1.179a1.017 1.017 0 0 1-1.406 0l-1.59-1.59A1 1 0 0 0 52.826 5h-.011a1 1 0 0 0-.711.309L48.572 9H45.5l-2.7-3.6A1 1 0 0 0 42 5zm2 13a1 1 0 0 1 1-1h4a1 1 0 0 1 1 1v2h-6zm-.911 5.905L43.722 22h6.668a38.782 38.782 0 0 1 2.91 7H40.256a15.7 15.7 0 0 0 2.833-5.095zM22 7.21a8.46 8.46 0 0 0 6 0v7.313a8.85 8.85 0 0 0-6 0zM25 16a6.989 6.989 0 0 1 7 7v6h-2v-5a1 1 0 0 0-2 0v5h-8v-4a3 3 0 0 0-1.938-2.8 6.929 6.929 0 0 1 1.251-3.28A7.019 7.019 0 0 1 25 16zM12 5a3 3 0 0 1 3 3v1H9V8a3 3 0 0 1 3-3zm-3 6h6v3.522a8.858 8.858 0 0 0-6 0zM5 23a7 7 0 0 1 11.952-4.954c.121.121.231.244.337.367A8.9 8.9 0 0 0 16.077 22H10a3 3 0 0 0-3 3v4H5z"/>
      <path id="Shape" d="M46.59 39.028a3 3 0 0 0-3.382 2.564l-1.51 11a3 3 0 1 0 5.944.816l1.509-11a3 3 0 0 0-2.561-3.38zm-.929 14.108a1 1 0 1 1-1.982-.272l1.509-11a1 1 0 0 1 1.13-.854 1 1 0 0 1 .856 1.127zm-19.37-13.364A2.975 2.975 0 0 0 24.146 39a3 3 0 0 0-2.853 3.142l.53 11a3 3 0 0 0 3 2.855h.147a3 3 0 0 0 2.852-3.142l-.53-11c-.04-.8-.4-1.552-1.001-2.083zM24.873 54l-.055 1v-1a1 1 0 0 1-1-.952l-.53-11A1 1 0 0 1 24.25 41h.05a.985.985 0 0 1 .653.258 1 1 0 0 1 .336.694l.53 11A1 1 0 0 1 24.873 54zm10.981-15a3.033 3.033 0 0 0-3.141 2.852l-.53 11A3 3 0 0 0 35.039 56h.143a3 3 0 0 0 2.995-2.855l.53-11A3 3 0 0 0 35.854 39zm.325 14.045a1 1 0 0 1-1 .952v1l-.051-1a1 1 0 0 1-.95-1.047l.53-11a.99.99 0 0 1 1-.952h.051a1 1 0 0 1 .95 1.047z"/>
      <circle id="Oval"  cx="25" cy="11" r="1"/>
    </g>
  </g>
</svg>
