<svg xmlns="http://www.w3.org/2000/svg" id="Layer_3" data-name="Layer 3" viewBox="0 0 64 64" width="512" height="512">
  <path fill="#ffffff" d="M43 23v-1a3 3 0 0 0-3-3v-1.848a9.971 9.971 0 0 1 3.6-7.681l2.042-1.7A1 1 0 0 0 46 7V2a1 1 0 0 0-1-1H17a1 1 0 0 0-1 1v6a1 1 0 0 0 1 1h6.937a8.584 8.584 0 0 1-2.472 5.121l-1.172 1.172A1 1 0 0 0 21 17h7v2a3 3 0 0 0-3 3v1a5.006 5.006 0 0 0-5 5v30a5.006 5.006 0 0 0 5 5h18a5.006 5.006 0 0 0 5-5V28a5.006 5.006 0 0 0-5-5ZM18 3h2v4h-2Zm5.38 12a10.563 10.563 0 0 0 2.389-4.817L28 12.414V15Zm6.327-3.707-4-4A1 1 0 0 0 25 7h-3V3h22v3.531l-1.683 1.4A11.971 11.971 0 0 0 38 17.152V19h-8v-7a1 1 0 0 0-.293-.707ZM27 22a1 1 0 0 1 1-1h12a1 1 0 0 1 1 1v1H27Zm-2 3h18a3 3 0 0 1 3 3v3H22v-3a3 3 0 0 1 3-3Zm21 8v20H22V33Zm-3 28H25a3 3 0 0 1-3-3v-3h24v3a3 3 0 0 1-3 3Z"/>
  <path fill="#ffffff" d="M25 51h10a9.01 9.01 0 0 0 9-9 1 1 0 0 0-1-1h-6a8.935 8.935 0 0 0-1 .059V36a1 1 0 0 0-1-1h-1a10.011 10.011 0 0 0-10 10v5a1 1 0 0 0 1 1Zm16.929-8A7.011 7.011 0 0 1 35 49h-.729a19.04 19.04 0 0 0 4.436-3.293l-1.414-1.414a17.088 17.088 0 0 1-6.635 4.1l-.5.167A7.007 7.007 0 0 1 37 43ZM34 37v4.525A9.014 9.014 0 0 0 28.059 49h-.881a13.863 13.863 0 0 1 2.263-5.612 21.207 21.207 0 0 1 2.266-2.681l-1.414-1.414a23.13 23.13 0 0 0-2.481 2.935A15.068 15.068 0 0 0 26 45.667V45a8.009 8.009 0 0 1 8-8Z"/>
</svg>
